<svg xmlns="http://www.w3.org/2000/svg" viewBox="0 0 130 96"><defs><style>.cls-1{opacity:0.5;}.cls-2{fill:#d4002b;}.cls-2,.cls-3,.cls-4,.cls-5,.cls-6{stroke:#000;stroke-miterlimit:10;stroke-width:3px;}.cls-3{font-size:33.4px;font-family:MyriadPro-Regular, Myriad Pro;}.cls-4{fill:#007f4d;}.cls-5{fill:#0900e9;}.cls-6{fill:#d43e00;}</style></defs><g id="Bussit"><g id="bus1_W"><path class="cls-2" d="M34.64,59c0,6.34,5.46,11.08,10.94,10.5,4.8-.52,8.84-5,8.75-10.5"/><path class="cls-2" d="M75.62,59c0,6.35,5.46,11.09,10.94,10.5,4.8-.51,8.84-5,8.75-10.5"/><path class="cls-2" d="M29.69,59H101a5.37,5.37,0,0,0,3.71-1.54,5.23,5.23,0,0,0,1.54-3.71V22.23A5.26,5.26,0,0,0,101,17H29.69A5.36,5.36,0,0,0,26,18.52a5.27,5.27,0,0,0-1.54,3.71v31.5A5.26,5.26,0,0,0,29.69,59Z"/><path class="cls-2" d="M51.05,18.51a15.46,15.46,0,0,1-2.67,12.13A17.76,17.76,0,0,1,40,36.7l-15.52.41"/><text class="cls-3" transform="translate(70.38 46.46) scale(1.25 1)">1</text></g><g id="bus1_E"><path class="cls-2" d="M97.79,60.33c0,6.35-5.45,11.08-10.93,10.5-4.8-.51-8.84-5-8.75-10.5"/><path class="cls-2" d="M56.81,60.29c0,6.35-5.45,11.09-10.94,10.5-4.79-.51-8.83-5-8.75-10.5"/><path class="cls-2" d="M102.75,60.29H31.44a5.36,5.36,0,0,1-3.71-1.54A5.23,5.23,0,0,1,26.19,55V23.54a5.27,5.27,0,0,1,5.25-5.25h71.31a5.46,5.46,0,0,1,3.71,1.55,5.22,5.22,0,0,1,1.54,3.7V55A5.26,5.26,0,0,1,102.75,60.29Z"/><path class="cls-2" d="M81.39,19.83A15.47,15.47,0,0,0,84.05,32,17.86,17.86,0,0,0,92.48,38l15.52.4"/><text class="cls-3" transform="translate(46.76 49.09) scale(1.25 1)">1</text></g><g id="bus8_E"><path class="cls-4" d="M95.61,60.33c0,6.35-5.46,11.08-10.94,10.5-4.8-.51-8.84-5-8.75-10.5"/><path class="cls-4" d="M54.62,60.29c0,6.35-5.45,11.09-10.93,10.5-4.8-.51-8.84-5-8.75-10.5"/><path class="cls-4" d="M100.56,60.29H29.25a5.37,5.37,0,0,1-3.71-1.54A5.23,5.23,0,0,1,24,55V23.54a5.27,5.27,0,0,1,5.25-5.25h71.31a5.44,5.44,0,0,1,3.71,1.55,5.22,5.22,0,0,1,1.54,3.7V55A5.26,5.26,0,0,1,100.56,60.29Z"/><path class="cls-4" d="M79.2,19.83A15.44,15.44,0,0,0,81.87,32,17.8,17.8,0,0,0,90.29,38l15.52.4"/><text class="cls-3" transform="translate(44.13 49.96) scale(1.25 1)">8</text></g><g id="bus8_W"><path class="cls-4" d="M36.39,61.64c0,6.35,5.46,11.09,10.94,10.5,4.8-.51,8.84-5,8.75-10.5"/><path class="cls-4" d="M77.37,61.61c0,6.35,5.46,11.08,10.94,10.5,4.8-.51,8.84-5,8.75-10.5"/><path class="cls-4" d="M31.44,61.61h71.31a5.4,5.4,0,0,0,3.71-1.55,5.22,5.22,0,0,0,1.54-3.7V24.86a5.26,5.26,0,0,0-5.25-5.25H31.44a5.36,5.36,0,0,0-3.71,1.54,5.23,5.23,0,0,0-1.54,3.71v31.5A5.27,5.27,0,0,0,31.44,61.61Z"/><path class="cls-4" d="M52.8,21.14a15.44,15.44,0,0,1-2.67,12.12,17.8,17.8,0,0,1-8.42,6.07l-15.52.4"/><text class="cls-3" transform="translate(70.38 50.4) scale(1.25 1)">8</text></g><g id="bus4_E"><path class="cls-5" d="M96.48,60.33c0,6.35-5.45,11.08-10.94,10.5-4.79-.51-8.83-5-8.75-10.5"/><path class="cls-5" d="M55.5,60.29c0,6.35-5.45,11.09-10.94,10.5-4.79-.51-8.84-5-8.75-10.5"/><path class="cls-5" d="M101.44,60.29H30.12a5.36,5.36,0,0,1-3.7-1.54A5.24,5.24,0,0,1,24.87,55V23.54a5.28,5.28,0,0,1,5.25-5.25h71.32a5.46,5.46,0,0,1,3.71,1.55,5.22,5.22,0,0,1,1.54,3.7V55A5.26,5.26,0,0,1,101.44,60.29Z"/><path class="cls-5" d="M80.08,19.83A15.42,15.42,0,0,0,82.74,32,17.86,17.86,0,0,0,91.17,38l15.52.4"/><text class="cls-3" transform="translate(45.01 50.84) scale(1.25 1)">4</text></g><g id="bus4_W"><path class="cls-5" d="M34.21,61.64c0,6.35,5.45,11.09,10.93,10.5,4.8-.51,8.84-5,8.75-10.5"/><path class="cls-5" d="M75.19,61.61c0,6.35,5.45,11.08,10.93,10.5,4.8-.51,8.84-5,8.75-10.5"/><path class="cls-5" d="M29.25,61.61h71.31a5.39,5.39,0,0,0,3.71-1.55,5.22,5.22,0,0,0,1.54-3.7V24.86a5.26,5.26,0,0,0-5.25-5.25H29.25a5.37,5.37,0,0,0-3.71,1.54A5.23,5.23,0,0,0,24,24.86v31.5A5.27,5.27,0,0,0,29.25,61.61Z"/><path class="cls-5" d="M50.61,21.14A15.46,15.46,0,0,1,48,33.26a17.86,17.86,0,0,1-8.43,6.07L24,39.73"/><text class="cls-3" transform="translate(60.76 51.03) scale(1.25 1)">4</text></g><g id="bus3_E"><path class="cls-6" d="M97.72,60.85c0,6.35-5.45,11.09-10.94,10.5-4.79-.51-8.84-5-8.75-10.5"/><path class="cls-6" d="M56.74,60.82c0,6.35-5.46,11.08-10.94,10.5-4.8-.51-8.84-5-8.75-10.5"/><path class="cls-6" d="M102.68,60.82H31.36a5.39,5.39,0,0,1-3.71-1.54,5.27,5.27,0,0,1-1.54-3.71V24.07a5.27,5.27,0,0,1,5.25-5.25h71.32a5.36,5.36,0,0,1,3.7,1.54,5.24,5.24,0,0,1,1.55,3.71v31.5A5.27,5.27,0,0,1,102.68,60.82Z"/><path class="cls-6" d="M81.32,20.35A15.4,15.4,0,0,0,84,32.48a17.88,17.88,0,0,0,8.42,6.06l15.53.4"/><text class="cls-3" transform="translate(46.89 50.49) scale(1.25 1)">3</text></g><g id="bus3_W"><path class="cls-6" d="M34.25,60.85c0,6.35,5.45,11.09,10.94,10.5,4.8-.51,8.84-5,8.75-10.5"/><path class="cls-6" d="M75.23,60.82c0,6.35,5.46,11.08,10.94,10.5,4.8-.51,8.84-5,8.75-10.5"/><path class="cls-6" d="M29.3,60.82h71.31a5.37,5.37,0,0,0,3.71-1.54,5.27,5.27,0,0,0,1.54-3.71V24.07a5.26,5.26,0,0,0-5.25-5.25H29.3a5.36,5.36,0,0,0-3.71,1.54,5.23,5.23,0,0,0-1.54,3.71v31.5A5.26,5.26,0,0,0,29.3,60.82Z"/><path class="cls-6" d="M50.65,20.35A15.4,15.4,0,0,1,48,32.48a17.88,17.88,0,0,1-8.42,6.06l-15.52.4"/><text class="cls-3" transform="translate(66.36 49.16) scale(1.25 1)">3</text></g></g></svg>