<svg xmlns="http://www.w3.org/2000/svg" viewBox="0 0 228 155"><defs><style>.cls-1{opacity:0.5;}.cls-2{fill:#007f4d;stroke-width:8px;}.cls-2,.cls-3{stroke:#000;stroke-miterlimit:10;}.cls-3{font-size:76.35px;stroke-width:0.75px;font-family:MyriadPro-Regular, Myriad Pro;}</style></defs><g id="Random_assets" data-name="Random assets"><g id="Layer_15" data-name="Layer 15"><path class="cls-2" d="M45.83,113.58c0,14.51,12.46,25.34,25,24,11-1.17,20.2-11.46,20-24"/><path class="cls-2" d="M139.5,113.5c0,14.51,12.46,25.34,25,24,11-1.17,20.2-11.45,20-24"/><path class="cls-2" d="M34.5,113.5h163A12.29,12.29,0,0,0,206,110a12,12,0,0,0,3.52-8.47v-72a12,12,0,0,0-12-12H34.5A12.26,12.26,0,0,0,26,21,11.93,11.93,0,0,0,22.5,29.5v72A12,12,0,0,0,34.5,113.5Z"/><path class="cls-2" d="M83.32,21a35.32,35.32,0,0,1-6.08,27.72A40.9,40.9,0,0,1,58,62.58L22.5,63.5"/><text class="cls-3" transform="translate(123.51 87.89) scale(1.25 1)">8</text></g></g></svg>