<svg xmlns="http://www.w3.org/2000/svg" viewBox="0 0 214 156"><defs><style>.cls-1{opacity:0.5;}.cls-2{fill:#d4002b;stroke-width:8px;}.cls-2,.cls-3{stroke:#000;stroke-miterlimit:10;}.cls-3{font-size:76.35px;font-family:MyriadPro-Regular, Myriad Pro;}</style></defs><g id="Random_assets" data-name="Random assets"><g id="Layer_15" data-name="Layer 15"><path class="cls-2" d="M175.17,120.58c0,14.51-12.46,25.34-25,24-11-1.17-20.2-11.46-20-24"/><path class="cls-2" d="M81.5,120.5c0,14.51-12.46,25.34-25,24-11-1.17-20.2-11.45-20-24"/><path class="cls-2" d="M186.5,120.5H23.5A12.29,12.29,0,0,1,15,117a12,12,0,0,1-3.52-8.47v-72a12,12,0,0,1,12-12h163A12.26,12.26,0,0,1,195,28a11.93,11.93,0,0,1,3.53,8.47v72A12,12,0,0,1,186.5,120.5Z"/><path class="cls-2" d="M137.68,28a35.32,35.32,0,0,0,6.08,27.72A40.9,40.9,0,0,0,163,69.58l35.48.92"/><text class="cls-3" transform="translate(58.51 94.89) scale(1.25 1)">1</text></g></g></svg>