<svg id="Bussit" xmlns="http://www.w3.org/2000/svg" viewBox="0 0 130 102"><defs><style>.cls-1{fill:#d4002b;}.cls-1,.cls-2,.cls-3,.cls-4,.cls-5,.cls-6{stroke:#000;stroke-miterlimit:10;}.cls-1,.cls-2,.cls-4,.cls-5,.cls-6{stroke-width:3px;}.cls-2{font-size:33.4px;font-family:MyriadPro-Regular, Myriad Pro;}.cls-3{fill:#fff;}.cls-4{fill:#007f4d;}.cls-5{fill:#0900e9;}.cls-6{fill:#d43e00;}</style></defs><g id="bus1_fast_W"><path class="cls-1" d="M32.64,49c0,6.34,5.46,11.08,10.94,10.5,4.8-.52,8.84-5,8.75-10.5"/><path class="cls-1" d="M73.62,49c0,6.35,5.46,11.09,10.94,10.5,4.8-.51,8.84-5,8.75-10.5"/><path class="cls-1" d="M27.69,49H99a5.37,5.37,0,0,0,3.71-1.54,5.23,5.23,0,0,0,1.54-3.71V12.23A5.26,5.26,0,0,0,99,7H27.69A5.36,5.36,0,0,0,24,8.52a5.27,5.27,0,0,0-1.54,3.71v31.5A5.26,5.26,0,0,0,27.69,49Z"/><path class="cls-1" d="M49.05,8.51a15.46,15.46,0,0,1-2.67,12.13A17.76,17.76,0,0,1,38,26.7l-15.52.41"/><text class="cls-2" transform="translate(68.38 36.46) scale(1.25 1)">1</text><path class="cls-3" d="M107.15,19l19-1"/><path class="cls-3" d="M108.15,25l9-1"/><path class="cls-3" d="M110.15,30l16,2"/><path class="cls-3" d="M111.15,40l10-2"/></g><g id="bus1_fast_E"><path class="cls-1" d="M95.79,50.33c0,6.35-5.45,11.08-10.93,10.5-4.8-.51-8.84-5-8.75-10.5"/><path class="cls-1" d="M54.81,50.29c0,6.35-5.45,11.09-10.94,10.5-4.79-.51-8.83-5-8.75-10.5"/><path class="cls-1" d="M100.75,50.29H29.44a5.36,5.36,0,0,1-3.71-1.54A5.23,5.23,0,0,1,24.19,45V13.54a5.27,5.27,0,0,1,5.25-5.25h71.31a5.46,5.46,0,0,1,3.71,1.55,5.22,5.22,0,0,1,1.54,3.7V45A5.26,5.26,0,0,1,100.75,50.29Z"/><path class="cls-1" d="M79.39,9.83A15.47,15.47,0,0,0,82.05,22,17.86,17.86,0,0,0,90.48,28l15.52.4"/><text class="cls-2" transform="translate(44.76 39.09) scale(1.25 1)">1</text><path class="cls-3" d="M20.61,21,2.77,20"/><path class="cls-3" d="M19.67,27l-8.45-1"/><path class="cls-3" d="M17.8,32l-15,2"/><path class="cls-3" d="M16.86,42l-9.4-2"/></g><g id="bus8_fast_E"><path class="cls-4" d="M93.61,60.33c0,6.35-5.46,11.08-10.94,10.5-4.8-.51-8.84-5-8.75-10.5"/><path class="cls-4" d="M52.62,60.29c0,6.35-5.45,11.09-10.93,10.5-4.8-.51-8.84-5-8.75-10.5"/><path class="cls-4" d="M98.56,60.29H27.25a5.37,5.37,0,0,1-3.71-1.54A5.23,5.23,0,0,1,22,55V23.54a5.27,5.27,0,0,1,5.25-5.25H98.56a5.44,5.44,0,0,1,3.71,1.55,5.22,5.22,0,0,1,1.54,3.7V55A5.26,5.26,0,0,1,98.56,60.29Z"/><path class="cls-4" d="M77.2,19.83A15.44,15.44,0,0,0,79.87,32,17.8,17.8,0,0,0,88.29,38l15.52.4"/><text class="cls-2" transform="translate(42.13 49.96) scale(1.25 1)">8</text><path class="cls-3" d="M19.61,31,1.77,30"/><path class="cls-3" d="M18.67,37l-8.45-1"/><path class="cls-3" d="M16.8,42l-15,2"/><path class="cls-3" d="M15.86,52l-9.4-2"/></g><g id="bus8_fast_W"><path class="cls-4" d="M34.39,61.64c0,6.35,5.46,11.09,10.94,10.5,4.8-.51,8.84-5,8.75-10.5"/><path class="cls-4" d="M75.37,61.61c0,6.35,5.46,11.08,10.94,10.5,4.8-.51,8.84-5,8.75-10.5"/><path class="cls-4" d="M29.44,61.61h71.31a5.4,5.4,0,0,0,3.71-1.55,5.22,5.22,0,0,0,1.54-3.7V24.86a5.26,5.26,0,0,0-5.25-5.25H29.44a5.36,5.36,0,0,0-3.71,1.54,5.23,5.23,0,0,0-1.54,3.71v31.5A5.27,5.27,0,0,0,29.44,61.61Z"/><path class="cls-4" d="M50.8,21.14a15.44,15.44,0,0,1-2.67,12.12,17.8,17.8,0,0,1-8.42,6.07l-15.52.4"/><text class="cls-2" transform="translate(68.38 50.4) scale(1.25 1)">8</text><path class="cls-3" d="M109.15,32l19-1"/><path class="cls-3" d="M110.15,38l9-1"/><path class="cls-3" d="M112.15,43l16,2"/><path class="cls-3" d="M113.15,53l10-2"/></g><g id="bus4_fast_E"><path class="cls-5" d="M94.48,75.33c0,6.35-5.45,11.08-10.94,10.5-4.79-.51-8.83-5-8.75-10.5"/><path class="cls-5" d="M53.5,75.29c0,6.35-5.45,11.09-10.94,10.5-4.79-.51-8.84-5-8.75-10.5"/><path class="cls-5" d="M99.44,75.29H28.12a5.36,5.36,0,0,1-3.7-1.54A5.24,5.24,0,0,1,22.87,70V38.54a5.28,5.28,0,0,1,5.25-5.25H99.44a5.46,5.46,0,0,1,3.71,1.55,5.22,5.22,0,0,1,1.54,3.7V70A5.26,5.26,0,0,1,99.44,75.29Z"/><path class="cls-5" d="M78.08,34.83A15.42,15.42,0,0,0,80.74,47,17.86,17.86,0,0,0,89.17,53l15.52.4"/><text class="cls-2" transform="translate(43.01 65.84) scale(1.25 1)">4</text><path class="cls-3" d="M18.61,48,.77,47"/><path class="cls-3" d="M17.67,54,9.22,53"/><path class="cls-3" d="M15.8,59l-15,2"/><path class="cls-3" d="M14.86,69l-9.4-2"/></g><g id="bus4_fast_W"><path class="cls-5" d="M32.21,76.64c0,6.35,5.45,11.09,10.93,10.5,4.8-.51,8.84-5,8.75-10.5"/><path class="cls-5" d="M73.19,76.61c0,6.35,5.45,11.08,10.93,10.5,4.8-.51,8.84-5,8.75-10.5"/><path class="cls-5" d="M27.25,76.61H98.56a5.39,5.39,0,0,0,3.71-1.55,5.22,5.22,0,0,0,1.54-3.7V39.86a5.26,5.26,0,0,0-5.25-5.25H27.25a5.37,5.37,0,0,0-3.71,1.54A5.23,5.23,0,0,0,22,39.86v31.5A5.27,5.27,0,0,0,27.25,76.61Z"/><path class="cls-5" d="M48.61,36.14A15.46,15.46,0,0,1,46,48.26a17.86,17.86,0,0,1-8.43,6.07L22,54.73"/><text class="cls-2" transform="translate(58.76 66.03) scale(1.25 1)">4</text><path class="cls-3" d="M107.15,49l19-1"/><path class="cls-3" d="M108.15,55l9-1"/><path class="cls-3" d="M110.15,60l16,2"/><path class="cls-3" d="M111.15,70l10-2"/></g><g id="bus3_fast_E"><path class="cls-6" d="M95.72,89.85c0,6.35-5.45,11.09-10.94,10.5-4.79-.51-8.84-5-8.75-10.5"/><path class="cls-6" d="M54.74,89.82c0,6.35-5.46,11.08-10.94,10.5-4.8-.51-8.84-5-8.75-10.5"/><path class="cls-6" d="M100.68,89.82H29.36a5.39,5.39,0,0,1-3.71-1.54,5.27,5.27,0,0,1-1.54-3.71V53.07a5.27,5.27,0,0,1,5.25-5.25h71.32a5.36,5.36,0,0,1,3.7,1.54,5.24,5.24,0,0,1,1.55,3.71v31.5A5.27,5.27,0,0,1,100.68,89.82Z"/><path class="cls-6" d="M79.32,49.35A15.4,15.4,0,0,0,82,61.48a17.88,17.88,0,0,0,8.42,6.06l15.53.4"/><text class="cls-2" transform="translate(44.89 79.49) scale(1.25 1)">3</text><path class="cls-3" d="M21,63,3.15,62"/><path class="cls-3" d="M20.06,69l-8.45-1"/><path class="cls-3" d="M18.18,74l-15,2"/><path class="cls-3" d="M17.24,84,7.85,82"/></g><g id="bus3_fast_W"><path class="cls-6" d="M32.25,89.85c0,6.35,5.45,11.09,10.94,10.5,4.8-.51,8.84-5,8.75-10.5"/><path class="cls-6" d="M73.23,89.82c0,6.35,5.46,11.08,10.94,10.5,4.8-.51,8.84-5,8.75-10.5"/><path class="cls-6" d="M27.3,89.82H98.61a5.37,5.37,0,0,0,3.71-1.54,5.27,5.27,0,0,0,1.54-3.71V53.07a5.26,5.26,0,0,0-5.25-5.25H27.3a5.36,5.36,0,0,0-3.71,1.54,5.23,5.23,0,0,0-1.54,3.71v31.5A5.26,5.26,0,0,0,27.3,89.82Z"/><path class="cls-6" d="M48.65,49.35A15.4,15.4,0,0,1,46,61.48a17.88,17.88,0,0,1-8.42,6.06l-15.52.4"/><text class="cls-2" transform="translate(64.36 78.16) scale(1.25 1)">3</text><path class="cls-3" d="M106.5,58.5l19-1"/><path class="cls-3" d="M107.5,64.5l9-1"/><path class="cls-3" d="M109.5,69.5l16,2"/><path class="cls-3" d="M110.5,79.5l10-2"/></g><g id="bus1_W"><path class="cls-1" d="M32.64,49c0,6.34,5.46,11.08,10.94,10.5,4.8-.52,8.84-5,8.75-10.5"/><path class="cls-1" d="M73.62,49c0,6.35,5.46,11.09,10.94,10.5,4.8-.51,8.84-5,8.75-10.5"/><path class="cls-1" d="M27.69,49H99a5.37,5.37,0,0,0,3.71-1.54,5.23,5.23,0,0,0,1.54-3.71V12.23A5.26,5.26,0,0,0,99,7H27.69A5.36,5.36,0,0,0,24,8.52a5.27,5.27,0,0,0-1.54,3.71v31.5A5.26,5.26,0,0,0,27.69,49Z"/><path class="cls-1" d="M49.05,8.51a15.46,15.46,0,0,1-2.67,12.13A17.76,17.76,0,0,1,38,26.7l-15.52.41"/><text class="cls-2" transform="translate(68.38 36.46) scale(1.25 1)">1</text></g><g id="bus1_E"><path class="cls-1" d="M95.79,50.33c0,6.35-5.45,11.08-10.93,10.5-4.8-.51-8.84-5-8.75-10.5"/><path class="cls-1" d="M54.81,50.29c0,6.35-5.45,11.09-10.94,10.5-4.79-.51-8.83-5-8.75-10.5"/><path class="cls-1" d="M100.75,50.29H29.44a5.36,5.36,0,0,1-3.71-1.54A5.23,5.23,0,0,1,24.19,45V13.54a5.27,5.27,0,0,1,5.25-5.25h71.31a5.46,5.46,0,0,1,3.71,1.55,5.22,5.22,0,0,1,1.54,3.7V45A5.26,5.26,0,0,1,100.75,50.29Z"/><path class="cls-1" d="M79.39,9.83A15.47,15.47,0,0,0,82.05,22,17.86,17.86,0,0,0,90.48,28l15.52.4"/><text class="cls-2" transform="translate(44.76 39.09) scale(1.25 1)">1</text></g><g id="bus8_E"><path class="cls-4" d="M93.61,60.33c0,6.35-5.46,11.08-10.94,10.5-4.8-.51-8.84-5-8.75-10.5"/><path class="cls-4" d="M52.62,60.29c0,6.35-5.45,11.09-10.93,10.5-4.8-.51-8.84-5-8.75-10.5"/><path class="cls-4" d="M98.56,60.29H27.25a5.37,5.37,0,0,1-3.71-1.54A5.23,5.23,0,0,1,22,55V23.54a5.27,5.27,0,0,1,5.25-5.25H98.56a5.44,5.44,0,0,1,3.71,1.55,5.22,5.22,0,0,1,1.54,3.7V55A5.26,5.26,0,0,1,98.56,60.29Z"/><path class="cls-4" d="M77.2,19.83A15.44,15.44,0,0,0,79.87,32,17.8,17.8,0,0,0,88.29,38l15.52.4"/><text class="cls-2" transform="translate(42.13 49.96) scale(1.25 1)">8</text></g><g id="bus8_W"><path class="cls-4" d="M34.39,61.64c0,6.35,5.46,11.09,10.94,10.5,4.8-.51,8.84-5,8.75-10.5"/><path class="cls-4" d="M75.37,61.61c0,6.35,5.46,11.08,10.94,10.5,4.8-.51,8.84-5,8.75-10.5"/><path class="cls-4" d="M29.44,61.61h71.31a5.4,5.4,0,0,0,3.71-1.55,5.22,5.22,0,0,0,1.54-3.7V24.86a5.26,5.26,0,0,0-5.25-5.25H29.44a5.36,5.36,0,0,0-3.71,1.54,5.23,5.23,0,0,0-1.54,3.71v31.5A5.27,5.27,0,0,0,29.44,61.61Z"/><path class="cls-4" d="M50.8,21.14a15.44,15.44,0,0,1-2.67,12.12,17.8,17.8,0,0,1-8.42,6.07l-15.52.4"/><text class="cls-2" transform="translate(68.38 50.4) scale(1.25 1)">8</text></g><g id="bus4_E"><path class="cls-5" d="M94.48,75.33c0,6.35-5.45,11.08-10.94,10.5-4.79-.51-8.83-5-8.75-10.5"/><path class="cls-5" d="M53.5,75.29c0,6.35-5.45,11.09-10.94,10.5-4.79-.51-8.84-5-8.75-10.5"/><path class="cls-5" d="M99.44,75.29H28.12a5.36,5.36,0,0,1-3.7-1.54A5.24,5.24,0,0,1,22.87,70V38.54a5.28,5.28,0,0,1,5.25-5.25H99.44a5.46,5.46,0,0,1,3.71,1.55,5.22,5.22,0,0,1,1.54,3.7V70A5.26,5.26,0,0,1,99.44,75.29Z"/><path class="cls-5" d="M78.08,34.83A15.42,15.42,0,0,0,80.74,47,17.86,17.86,0,0,0,89.17,53l15.52.4"/><text class="cls-2" transform="translate(43.01 65.84) scale(1.25 1)">4</text></g><g id="bus4_W"><path class="cls-5" d="M32.21,76.64c0,6.35,5.45,11.09,10.93,10.5,4.8-.51,8.84-5,8.75-10.5"/><path class="cls-5" d="M73.19,76.61c0,6.35,5.45,11.08,10.93,10.5,4.8-.51,8.84-5,8.75-10.5"/><path class="cls-5" d="M27.25,76.61H98.56a5.39,5.39,0,0,0,3.71-1.55,5.22,5.22,0,0,0,1.54-3.7V39.86a5.26,5.26,0,0,0-5.25-5.25H27.25a5.37,5.37,0,0,0-3.71,1.54A5.23,5.23,0,0,0,22,39.86v31.5A5.27,5.27,0,0,0,27.25,76.61Z"/><path class="cls-5" d="M48.61,36.14A15.46,15.46,0,0,1,46,48.26a17.86,17.86,0,0,1-8.43,6.07L22,54.73"/><text class="cls-2" transform="translate(58.76 66.03) scale(1.25 1)">4</text></g><g id="bus3_E"><path class="cls-6" d="M95.72,89.85c0,6.35-5.45,11.09-10.94,10.5-4.79-.51-8.84-5-8.75-10.5"/><path class="cls-6" d="M54.74,89.82c0,6.35-5.46,11.08-10.94,10.5-4.8-.51-8.84-5-8.75-10.5"/><path class="cls-6" d="M100.68,89.82H29.36a5.39,5.39,0,0,1-3.71-1.54,5.27,5.27,0,0,1-1.54-3.71V53.07a5.27,5.27,0,0,1,5.25-5.25h71.32a5.36,5.36,0,0,1,3.7,1.54,5.24,5.24,0,0,1,1.55,3.71v31.5A5.27,5.27,0,0,1,100.68,89.82Z"/><path class="cls-6" d="M79.32,49.35A15.4,15.4,0,0,0,82,61.48a17.88,17.88,0,0,0,8.42,6.06l15.53.4"/><text class="cls-2" transform="translate(44.89 79.49) scale(1.25 1)">3</text></g><g id="bus3_W"><path class="cls-6" d="M32.25,89.85c0,6.35,5.45,11.09,10.94,10.5,4.8-.51,8.84-5,8.75-10.5"/><path class="cls-6" d="M73.23,89.82c0,6.35,5.46,11.08,10.94,10.5,4.8-.51,8.84-5,8.75-10.5"/><path class="cls-6" d="M27.3,89.82H98.61a5.37,5.37,0,0,0,3.71-1.54,5.27,5.27,0,0,0,1.54-3.71V53.07a5.26,5.26,0,0,0-5.25-5.25H27.3a5.36,5.36,0,0,0-3.71,1.54,5.23,5.23,0,0,0-1.54,3.71v31.5A5.26,5.26,0,0,0,27.3,89.82Z"/><path class="cls-6" d="M48.65,49.35A15.4,15.4,0,0,1,46,61.48a17.88,17.88,0,0,1-8.42,6.06l-15.52.4"/><text class="cls-2" transform="translate(64.36 78.16) scale(1.25 1)">3</text></g></svg>