<svg xmlns="http://www.w3.org/2000/svg" viewBox="0 0 227 166"><defs><style>.cls-1{opacity:0.5;}.cls-2{fill:#0900e9;stroke-width:8px;}.cls-2,.cls-3{stroke:#000;stroke-miterlimit:10;}.cls-3{font-size:76.35px;stroke-width:2px;font-family:MyriadPro-Regular, Myriad Pro;}</style></defs><g id="Random_assets" data-name="Random assets"><g id="Layer_15" data-name="Layer 15"><path class="cls-2" d="M183.17,125.58c0,14.51-12.46,25.34-25,24-11-1.17-20.2-11.46-20-24"/><path class="cls-2" d="M89.5,125.5c0,14.51-12.46,25.34-25,24-11-1.17-20.2-11.45-20-24"/><path class="cls-2" d="M194.5,125.5H31.5A12.29,12.29,0,0,1,23,122a12,12,0,0,1-3.52-8.47v-72a12,12,0,0,1,12-12h163A12.26,12.26,0,0,1,203,33a11.93,11.93,0,0,1,3.53,8.47v72A12,12,0,0,1,194.5,125.5Z"/><path class="cls-2" d="M145.68,33a35.32,35.32,0,0,0,6.08,27.72A40.9,40.9,0,0,0,171,74.58l35.48.92"/><text class="cls-3" transform="translate(65.51 103.89) scale(1.25 1)">4</text></g></g></svg>