<svg xmlns="http://www.w3.org/2000/svg" viewBox="0 0 209 155"><defs><style>.cls-1{opacity:0.5;}.cls-2{fill:#d4002b;stroke-width:8px;}.cls-2,.cls-3{stroke:#000;stroke-miterlimit:10;}.cls-3{font-size:76.35px;font-family:MyriadPro-Regular, Myriad Pro;}</style></defs><g id="Random_assets" data-name="Random assets"><g id="Layer_15" data-name="Layer 15"><path class="cls-2" d="M31.83,116.58c0,14.51,12.46,25.34,25,24,11-1.17,20.2-11.46,20-24"/><path class="cls-2" d="M125.5,116.5c0,14.51,12.46,25.34,25,24,11-1.17,20.2-11.45,20-24"/><path class="cls-2" d="M20.5,116.5h163A12.29,12.29,0,0,0,192,113a12,12,0,0,0,3.52-8.47v-72a12,12,0,0,0-12-12H20.5A12.26,12.26,0,0,0,12,24,11.93,11.93,0,0,0,8.5,32.5v72A12,12,0,0,0,20.5,116.5Z"/><path class="cls-2" d="M69.32,24a35.32,35.32,0,0,1-6.08,27.72A40.9,40.9,0,0,1,44,65.58L8.5,66.5"/><text class="cls-3" transform="translate(113.51 87.89) scale(1.25 1)">1</text></g></g></svg>