<svg xmlns="http://www.w3.org/2000/svg" viewBox="0 0 229 160"><defs><style>.cls-1{opacity:0.5;}.cls-2{fill:#d43e00;stroke-width:9px;}.cls-2,.cls-3{stroke:#000;stroke-miterlimit:10;}.cls-3{font-size:76.35px;font-family:MyriadPro-Regular, Myriad Pro;}</style></defs><g id="Random_assets" data-name="Random assets"><g id="Layer_15" data-name="Layer 15"><path class="cls-2" d="M41.83,118.58c0,14.51,12.46,25.34,25,24,11-1.17,20.2-11.46,20-24"/><path class="cls-2" d="M135.5,118.5c0,14.51,12.46,25.34,25,24,11-1.17,20.2-11.45,20-24"/><path class="cls-2" d="M30.5,118.5h163A12.29,12.29,0,0,0,202,115a12,12,0,0,0,3.52-8.47v-72a12,12,0,0,0-12-12H30.5A12.26,12.26,0,0,0,22,26,11.93,11.93,0,0,0,18.5,34.5v72A12,12,0,0,0,30.5,118.5Z"/><path class="cls-2" d="M79.32,26a35.32,35.32,0,0,1-6.08,27.72A40.9,40.9,0,0,1,54,67.58L18.5,68.5"/><text class="cls-3" transform="translate(115.22 91.86) scale(1.25 1)">3</text></g></g></svg>