<svg xmlns="http://www.w3.org/2000/svg" viewBox="0 0 238 155"><defs><style>.cls-1{opacity:0.5;}.cls-2{fill:#0900e9;stroke-width:8px;}.cls-2,.cls-3{stroke:#000;stroke-miterlimit:10;}.cls-3{font-size:76.35px;stroke-width:2px;font-family:MyriadPro-Regular, Myriad Pro;}</style></defs><g id="Random_assets" data-name="Random assets"><g id="Layer_15" data-name="Layer 15"><path class="cls-2" d="M42.83,111.58c0,14.51,12.46,25.34,25,24,11-1.17,20.2-11.46,20-24"/><path class="cls-2" d="M136.5,111.5c0,14.51,12.46,25.34,25,24,11-1.17,20.2-11.45,20-24"/><path class="cls-2" d="M31.5,111.5h163A12.29,12.29,0,0,0,203,108a12,12,0,0,0,3.52-8.47v-72a12,12,0,0,0-12-12H31.5A12.26,12.26,0,0,0,23,19,11.93,11.93,0,0,0,19.5,27.5v72A12,12,0,0,0,31.5,111.5Z"/><path class="cls-2" d="M80.32,19a35.32,35.32,0,0,1-6.08,27.72A40.9,40.9,0,0,1,55,60.58L19.5,61.5"/><text class="cls-3" transform="translate(103.51 87.32) scale(1.25 1)">4</text></g></g></svg>