<svg id="Layer_35" data-name="Layer 35" xmlns="http://www.w3.org/2000/svg" viewBox="0 0 387 341"><defs><style>.cls-1{fill:#fff;}.cls-1,.cls-2,.cls-3,.cls-4{stroke:#000;stroke-width:7px;}.cls-1,.cls-2,.cls-3,.cls-4,.cls-5,.cls-6{stroke-miterlimit:10;}.cls-2{fill:#ffe07f;}.cls-3{fill:#ffbe7f;}.cls-4{fill:#e92200;}.cls-5,.cls-6{fill:none;}.cls-5{stroke:#15fff4;stroke-width:8px;}.cls-6{stroke:#d46300;stroke-width:20px;}</style></defs><g id="foodEmpty_copy" data-name="foodEmpty copy"><ellipse class="cls-1" cx="195.75" cy="217.36" rx="166.75" ry="92.14"/><ellipse class="cls-1" cx="196.22" cy="216.9" rx="105.17" ry="53.2"/><path class="cls-1" d="M250.82,249.31a45.52,45.52,0,0,0,32.57-24.5"/></g><g id="foodCold_copy" data-name="foodCold copy"><ellipse class="cls-1" cx="195.75" cy="217.36" rx="166.75" ry="92.14"/><ellipse class="cls-2" cx="196.22" cy="216.9" rx="150.15" ry="80.51"/><ellipse class="cls-3" cx="196.22" cy="217.21" rx="138.05" ry="70.27"/><ellipse class="cls-4" cx="142.86" cy="185.25" rx="19.23" ry="11.32"/><ellipse class="cls-4" cx="231.89" cy="185.25" rx="19.23" ry="11.32"/><ellipse class="cls-4" cx="195.91" cy="230.55" rx="19.23" ry="11.32"/><ellipse class="cls-4" cx="98.8" cy="219.07" rx="19.23" ry="11.32"/><ellipse class="cls-4" cx="142.86" cy="255.98" rx="19.23" ry="11.32"/><ellipse class="cls-4" cx="251.13" cy="255.98" rx="19.23" ry="11.32"/><ellipse class="cls-4" cx="292.7" cy="207.59" rx="19.23" ry="11.32"/><line class="cls-5" x1="234.02" y1="45.67" x2="287.38" y2="76.69"/><line class="cls-5" x1="234.02" y1="71.26" x2="298.71" y2="43.48"/><line class="cls-5" x1="257.13" y1="76.69" x2="260.7" y2="37.82"/><path class="cls-5" d="M281.58,50.83v0Z"/><line class="cls-5" x1="296.85" y1="57.26" x2="281.58" y2="50.83"/><path class="cls-5" d="M276.37,71.26v0Z"/><line class="cls-5" x1="292.35" y1="67.38" x2="276.37" y2="71.26"/><polyline class="cls-5" points="244.26 76.69 257.13 71.26 266.36 77.73"/><line class="cls-5" x1="255.31" y1="86.46" x2="257.13" y2="71.26"/><path class="cls-5" d="M243.05,67.38l-12.93-10Z"/><line class="cls-5" x1="237.9" y1="82.43" x2="243.05" y2="67.38"/><line class="cls-5" x1="225.59" y1="76.69" x2="240.48" y2="67.38"/><polyline class="cls-5" points="230.12 50.83 243.05 50.83 243.05 37.82"/><polyline class="cls-5" points="252.17 42.12 258.92 48 270.27 42.12"/><line class="cls-5" x1="148.18" y1="105.71" x2="201.54" y2="136.73"/><line class="cls-5" x1="148.18" y1="131.3" x2="212.86" y2="103.52"/><line class="cls-5" x1="171.29" y1="136.73" x2="174.86" y2="97.87"/><path class="cls-5" d="M195.74,110.88v0Z"/><line class="cls-5" x1="211.01" y1="117.3" x2="195.74" y2="110.88"/><path class="cls-5" d="M190.53,131.3v0Z"/><line class="cls-5" x1="206.5" y1="127.43" x2="190.53" y2="131.3"/><polyline class="cls-5" points="158.41 136.73 171.29 131.3 180.52 137.77"/><line class="cls-5" x1="169.47" y1="146.5" x2="171.29" y2="131.3"/><path class="cls-5" d="M157.21,127.43l-12.93-10Z"/><line class="cls-5" x1="152.06" y1="142.47" x2="157.21" y2="127.43"/><line class="cls-5" x1="139.75" y1="136.73" x2="154.63" y2="127.43"/><polyline class="cls-5" points="144.28 110.88 157.21 110.88 157.21 97.87"/><polyline class="cls-5" points="166.33 102.17 173.08 108.05 184.43 102.17"/><line class="cls-5" x1="270.18" y1="116.71" x2="323.54" y2="147.73"/><line class="cls-5" x1="270.18" y1="142.3" x2="334.86" y2="114.52"/><line class="cls-5" x1="293.29" y1="147.73" x2="296.86" y2="108.87"/><path class="cls-5" d="M317.74,121.88v0Z"/><line class="cls-5" x1="333.01" y1="128.3" x2="317.74" y2="121.88"/><path class="cls-5" d="M312.53,142.3v0Z"/><line class="cls-5" x1="328.5" y1="138.43" x2="312.53" y2="142.3"/><polyline class="cls-5" points="280.42 147.73 293.29 142.3 302.52 148.77"/><line class="cls-5" x1="291.47" y1="157.5" x2="293.29" y2="142.3"/><path class="cls-5" d="M279.21,138.43l-12.93-10Z"/><line class="cls-5" x1="274.06" y1="153.47" x2="279.21" y2="138.43"/><line class="cls-5" x1="261.75" y1="147.73" x2="276.63" y2="138.43"/><polyline class="cls-5" points="266.28 121.88 279.21 121.88 279.21 108.87"/><polyline class="cls-5" points="288.33 113.17 295.08 119.05 306.43 113.17"/></g><g id="foodHot_copy" data-name="foodHot copy"><ellipse class="cls-1" cx="195.75" cy="217.36" rx="166.75" ry="92.14"/><ellipse class="cls-2" cx="196.22" cy="216.9" rx="150.15" ry="80.51"/><ellipse class="cls-3" cx="196.22" cy="217.21" rx="138.05" ry="70.27"/><ellipse class="cls-4" cx="142.86" cy="185.25" rx="19.23" ry="11.32"/><ellipse class="cls-4" cx="231.89" cy="185.25" rx="19.23" ry="11.32"/><ellipse class="cls-4" cx="195.91" cy="230.55" rx="19.23" ry="11.32"/><ellipse class="cls-4" cx="98.8" cy="219.07" rx="19.23" ry="11.32"/><ellipse class="cls-4" cx="142.86" cy="255.98" rx="19.23" ry="11.32"/><ellipse class="cls-4" cx="251.13" cy="255.98" rx="19.23" ry="11.32"/><ellipse class="cls-4" cx="292.7" cy="207.59" rx="19.23" ry="11.32"/><path class="cls-6" d="M149.06,157.18c31.2-14.67,39.75-29.53,41.57-40.64,3.08-18.78-12.36-30.78-9-52.74,2.48-16.18,13.66-28,22.65-35.37"/><path class="cls-6" d="M201,173.48c31.2-14.66,39.75-29.52,41.57-40.64,3.08-18.77-12.36-30.77-9-52.74,2.48-16.18,13.66-28,22.65-35.36"/><path class="cls-6" d="M265.17,177.52c31.2-14.67,39.75-29.53,41.57-40.64,3.08-18.78-12.36-30.78-9-52.74,2.48-16.18,13.66-28,22.65-35.37"/></g><g id="foodWarm_copy" data-name="foodWarm copy"><ellipse class="cls-1" cx="195.75" cy="217.36" rx="166.75" ry="92.14"/><ellipse class="cls-2" cx="196.22" cy="216.9" rx="150.15" ry="80.51"/><ellipse class="cls-3" cx="196.22" cy="217.21" rx="138.05" ry="70.27"/><ellipse class="cls-4" cx="142.86" cy="185.25" rx="19.23" ry="11.32"/><ellipse class="cls-4" cx="231.89" cy="185.25" rx="19.23" ry="11.32"/><ellipse class="cls-4" cx="195.91" cy="230.55" rx="19.23" ry="11.32"/><ellipse class="cls-4" cx="98.8" cy="219.07" rx="19.23" ry="11.32"/><ellipse class="cls-4" cx="142.86" cy="255.98" rx="19.23" ry="11.32"/><ellipse class="cls-4" cx="251.13" cy="255.98" rx="19.23" ry="11.32"/><ellipse class="cls-4" cx="292.7" cy="207.59" rx="19.23" ry="11.32"/><path class="cls-6" d="M183.08,165.3c31.21-14.66,39.75-29.52,41.58-40.64,3.07-18.77-12.37-30.77-9-52.74,2.48-16.18,13.66-28,22.65-35.36"/><path class="cls-6" d="M235,181.61C266.18,167,274.72,152.09,276.54,141c3.08-18.77-12.36-30.77-9-52.74,2.48-16.18,13.66-28,22.64-35.37"/></g></svg>