<svg xmlns="http://www.w3.org/2000/svg" viewBox="0 0 1920 1080"><defs><style>.cls-1{opacity:0.5;}.cls-2{fill:#3ec14a;}.cls-3{fill:#adadad;}.cls-11,.cls-3,.cls-4,.cls-5{stroke:#000;}.cls-10,.cls-11,.cls-3,.cls-4,.cls-5,.cls-6,.cls-7,.cls-8,.cls-9{stroke-miterlimit:10;}.cls-4{fill:#15d115;}.cls-5{fill:#1499f4;}.cls-10,.cls-6,.cls-7,.cls-8,.cls-9{fill:none;stroke-width:11px;}.cls-6{stroke:#e9ef0f;}.cls-7{stroke:#d43e00;}.cls-8{stroke:#0900e9;}.cls-9{stroke:#d4002b;}.cls-10{stroke:#007f4d;}.cls-11{fill:#fff;stroke-width:5px;}</style></defs><g id="_Layer_" data-name="&lt;Layer&gt;" class="cls-1"><g id="tausa"><rect class="cls-2" x="0.5" y="0.5" width="1919" height="1079"/><path d="M1919,1V1079H1V1H1919m1-1H0V1080H1920V0Z"/></g><g id="Layer_3" data-name="Layer 3"><path class="cls-3" d="M1354.5,831.5c-84.7,50.36-108.93,59.8-111,85-2.13,26,26.91,52,85,104,50.14,44.88,66,46.48,75,46,30.76-1.65,33.61-30.37,77-52,38.13-19,49.67-3.67,112-19,40.75-10,95.33-23.44,104-56,7.56-28.39-28-40.27-36-95-6.31-43.38,12.66-59.23,0-82-20.1-36.15-88.66-33.48-101-33C1503.27,731.69,1482.45,755.42,1354.5,831.5Z"/><path class="cls-3" d="M763.5,1079.5c38.24-79.19,33.16-109.29,21-122-22.45-23.45-70.91,10.44-136-18-16.38-7.16-51.62-22.56-61-54-8.3-27.81,11.42-42.08,14-100,1.73-38.69-6.78-38.86-1-53,18.61-45.54,97.48-20.74,143-76,19.88-24.14,33.38-63.52,19-90-7.58-14-21.3-21.38-28-25-25.92-14-52.09-10.12-62-8-31.14,6.66-33.3,24-59,32-28.58,8.94-42.27-7.33-88-18-74.5-17.39-94.18,12.71-144-11-32-15.23-62.27-45.92-57-67,4.31-17.26,28.48-12.2,47-37,21.67-29,3.88-56.4,26-76,11.68-10.35,31.65-16,47-10,24,9.41,17.42,39.88,50,64,6.32,4.68,22.71,16.81,40,13,14.85-3.27,20.4-16.11,30-26,22.24-22.91,52.24-15.59,98-20,31.31-3,69.54-16.35,146-43,53.91-18.79,77.06-30.2,89-19,16.89,15.85-10,57,8,73,12.52,11.14,30.8-4,73-5,38.62-.92,68.35,10.68,82,16,41.62,16.24,42.1,31.35,86,51,15.54,6.95,14.62,4.67,79,22,61.65,16.59,92.92,25.13,115,37,25.58,13.76,22.94,17.44,60,38,36.31,20.15,47.12,21.2,54,34,13.57,25.24-4.85,65-25,88-37.16,42.4-102.1,52.77-149,46-34.22-4.94-41.15-16.46-64-11-32.77,7.83-51.66,39.44-74,78-37.51,64.74-21.74,73.67-48,103-13,14.49-47.32,32.33-116,68-15.38,8-37,19-59,41a170.89,170.89,0,0,0-30,40,162.54,162.54,0,0,0-16,45Z"/></g><g id="puisto"><path class="cls-4" d="M972.5,618.5c2.84,21.73,10.91,32.33,18,38,9,7.23,15.2,5.39,23,14,11.06,12.21,5.31,23.2,15,30,5.55,3.89,14,2.93,31,1a148.76,148.76,0,0,0,30-6c19-6,30-9.44,38-20,6.19-8.2,13.37-24.43,7-34-8.45-12.69-30.29,2-55-13-12-7.32-11.17-13.43-29-24-13-7.68-23-10.15-27-11-10.57-2.26-20-4.29-30,0C979.25,599.63,973.84,614.42,972.5,618.5Z"/></g><g id="vesi"><path class="cls-5" d="M-.5,706.5a466.49,466.49,0,0,1,88-76c27.9-18.55,76-49.86,144-63,49.45-9.55,45.41,2.87,89-8,60-15,76.66-40.77,130-41,21.49-.09,41.4,4,56,7,38.24,7.86,45.14,15.77,73,22,28.12,6.29,51.75,4.19,99,0,53-4.7,77-13.08,95,3,6.8,6.1,14.11,17,11,24-6.34,14.37-49.1-2.77-65,18-7.36,9.61-7.74,25.74-2,36,2.67,4.77,5.23,5.7,11,11,2.49,2.28,22.91,21,24,38,1,16.24-15.77,29.29-27,38-8.58,6.66-45.79,35.53-93,29-40.29-5.58-41.6-30.54-96-55-42.05-18.91-79.37-21.12-97-22-13.77-.69-70.77-2.53-134,25-35,15.24-32.53,22.34-64,33-45.71,15.49-55.57,2.09-100,15-45.74,13.29-76.92,39.6-94,54a305.57,305.57,0,0,0-48,51Z"/><path class="cls-5" d="M452.5.5c.54,11.11-.33,28.17-10,44-25.48,41.7-82.7,26.75-112,70-12.54,18.51-19,46.2-8,61,10,13.48,27.71,7.24,78,12,68.38,6.47,93.46,23.48,101,29,11.65,8.53,31.52,23.08,30,40-1.68,18.63-27.58,21-59,54-15.74,16.54-35.59,37.4-31,56,7,28.39,67.19,36.27,88,39,32.65,4.28,31.91-2.78,76,2,30.1,3.26,69,9,69,9,27.5,4.05,34.29,5.6,45,2,11.52-3.87,15.4-9.61,41-30,15.39-12.25,23.08-18.38,29-22,33.78-20.66,61.76,2.38,110-4,35.46-4.69,28-18.14,83-37,50.91-17.46,96.16-19.25,119-20,28.88-.94,31.52,1.77,83,1,58.84-.88,75.92-4.72,84-17,10.53-16-3.27-32.52,8-48,11.81-16.21,39.24-15,56-14,100,5.78,150,8.66,176,16,77.64,21.94,96.53,45,133,32,21-7.46,14.51-15,60-47,48-33.78,73.32-38.08,81-64,6.64-22.42-5.11-43.46-6-45-25-43.37-104.65-39.71-142-38-83.19,3.82-95.51,28.18-190,37-60,5.6-111.46,9.46-133-21-22.18-31.38-.2-81.83,7-97Z"/><path class="cls-5" d="M1620.5,596.5c-37-13.64-40.77-32-84-42-24.31-5.62-66.24-9.78-73,5-7.72,16.88,33.32,52.13,59,69,14.78,9.71,40.26,23.71,77,31,35.87,7.12,55,2.38,99,0,98.61-5.33,144.4,10.78,148-1,3.69-12.09-40-43.84-90-56C1693.22,587.1,1674.56,616.42,1620.5,596.5Z"/><path class="cls-5" d="M967.5,1079.5a485.37,485.37,0,0,1,51-60c6-6,29.77-24.76,77-62,24.81-19.56,37.51-29.27,52-26,10.75,2.43,22.11,11.68,22,21-.13,11.57-17.86,15.59-53,38-30.21,19.27-22.93,20-47,34-24.85,14.44-41.19,18.62-58,38a104.89,104.89,0,0,0-12,17Z"/><path class="cls-5" d="M1046.5,690.5c-3.43-11-9.88-25.79-23-38-19.34-18-39.7-18-40-27-.3-9.17,20.42-21.82,39-19,16.38,2.49,17.52,14.94,39,28,28.84,17.53,53.18,11.1,55,21s-21.09,22.82-30,27a86.2,86.2,0,0,1-18,6A89.44,89.44,0,0,1,1046.5,690.5Z"/></g><g id="_Layer_2" data-name="&lt;Layer&gt;"><path class="cls-6" d="M5.5,971.5c94.09-55.73,172.73-74.94,228-82,50.43-6.44,94.05-4.3,178-22,67.73-14.28,62.81-20.55,110-28,52-8.21,105.7-3.92,211,5,79,6.69,82.68,9.44,134,12,70,3.49,107,5.34,149,0,32.26-4.1,146.5-18.61,231-101,47-45.8,34-63.07,123-171,38.94-47.21,64.23-71.55,71-78,52.27-49.79,88.46-69.08,134-101,26.8-18.79,38-28.81,195-177,34.61-32.67,84.79-80.07,146-138"/><path class="cls-6" d="M893.5,440.5c18.1,142.58,12.4,255.62,4,331-6.23,55.88-15.36,101.13-18,114a1270.22,1270.22,0,0,1-55,191"/><path class="cls-6" d="M1369.5,584.5c-197.53-110.53-361.29-139-476-144-127.83-5.56-131.13,20.81-297,14-160.17-6.57-242.14-42.15-453-53-61.43-3.16-111.37-3.29-142-3"/></g><g id="Linjat"><polyline class="cls-7" points="1470.47 870.52 1145.5 471.5 348.14 471.5 348.14 269.91"/><g id="Layer_11" data-name="Layer 11"><polyline class="cls-8" points="1454.5 878.5 1314.5 707.5 863.08 707.5 863.08 491.35"/></g><g id="Layer_12" data-name="Layer 12"><path class="cls-9" d="M291,791.5H842.45V505h812.18q-.06,6.25-.13,12.5"/></g><g id="Layer_13" data-name="Layer 13"><polyline class="cls-10" points="1512.9 311.07 1512.9 485.91 122.57 491.35 122.57 361.51"/></g></g><g id="pysakit"><rect class="cls-11" x="1290.55" y="690.15" width="63.52" height="26.41" rx="12" transform="translate(-135.88 1045.28) rotate(-41.21)"/><rect class="cls-11" x="1430.61" y="861.35" width="63.52" height="26.41" rx="12" transform="translate(-213.97 1179.94) rotate(-41.21)"/><rect class="cls-11" x="823.67" y="690.28" width="63.52" height="26.41" rx="12"/><rect class="cls-11" x="1204.21" y="571.68" width="63.52" height="26.41" rx="12" transform="translate(-79.21 959.06) rotate(-41.21)"/><rect class="cls-11" x="1028.27" y="694.88" width="63.52" height="26.41" rx="12" transform="translate(351.95 1768.12) rotate(-90)"/><rect class="cls-11" x="1116.28" y="471.62" width="63.52" height="26.41" rx="12" transform="translate(663.22 1632.86) rotate(-90)"/><rect class="cls-11" x="817.85" y="468.08" width="63.52" height="38.22" rx="12" transform="translate(362.42 1336.8) rotate(-90)"/><rect class="cls-11" x="566.35" y="471.24" width="63.52" height="26.41" rx="12" transform="translate(113.67 1082.56) rotate(-90)"/><rect class="cls-11" x="316.77" y="467.85" width="63.52" height="26.41" rx="12" transform="translate(-132.52 829.58) rotate(-90)"/><rect class="cls-11" x="90.77" y="477.85" width="63.52" height="26.41" rx="12" transform="translate(-368.52 613.58) rotate(-90)"/><rect class="cls-11" x="90.77" y="350.85" width="63.52" height="26.41" rx="12"/><rect class="cls-11" x="315.89" y="257.07" width="63.52" height="26.41" rx="12"/><rect class="cls-11" x="1310.89" y="478.07" width="63.52" height="26.41" rx="12" transform="translate(851.37 1833.92) rotate(-90)"/><rect class="cls-11" x="1480.89" y="478.07" width="63.52" height="26.41" rx="12" transform="translate(1021.37 2003.92) rotate(-90)"/><rect class="cls-11" x="1622.89" y="492.07" width="63.52" height="26.41" rx="12" transform="translate(1149.37 2159.92) rotate(-90)"/><rect class="cls-11" x="1480.89" y="298.07" width="63.52" height="26.41" rx="12"/><rect class="cls-11" x="258.89" y="778.07" width="63.52" height="26.41" rx="12" transform="translate(-500.63 1081.92) rotate(-90)"/><rect class="cls-11" x="539.89" y="778.07" width="63.52" height="26.41" rx="12" transform="translate(-219.63 1362.92) rotate(-90)"/><rect class="cls-11" x="809.89" y="778.07" width="63.52" height="26.41" rx="12" transform="translate(50.37 1632.92) rotate(-90)"/></g></g></svg>