<svg xmlns="http://www.w3.org/2000/svg" viewBox="0 0 1920 1080"><defs><style>.cls-1{fill:#6aff87;stroke-width:7px;}.cls-1,.cls-10,.cls-11,.cls-2,.cls-3,.cls-4{stroke:#000;}.cls-1,.cls-10,.cls-11,.cls-2,.cls-3,.cls-4,.cls-5,.cls-6,.cls-7,.cls-8,.cls-9{stroke-miterlimit:10;}.cls-2{fill:#adadad;}.cls-3{fill:#15d115;}.cls-4{fill:#1499f4;}.cls-11,.cls-5,.cls-6,.cls-7,.cls-8,.cls-9{fill:none;stroke-width:11px;}.cls-5{stroke:#e9ef0f;}.cls-6{stroke:#d43e00;}.cls-7{stroke:#0900e9;}.cls-8{stroke:#d4002b;}.cls-9{stroke:#007f4d;}.cls-10{fill:#fff;stroke-width:5px;}</style></defs><g id="Layer_2" data-name="Layer 2"><rect class="cls-1" x="-0.5" y="0.5" width="1917" height="1079"/></g><g id="Layer_1" data-name="Layer 1"><path class="cls-2" d="M1355.05,831.71c-84.7,50.37-108.93,59.8-111,85-2.13,26,26.91,52,85,104,50.14,44.88,66,46.49,75,46,30.76-1.65,33.61-30.37,77-52,38.13-19,49.67-3.67,112-19,40.75-10,95.33-23.44,104-56,7.56-28.38-28-40.27-36-95-6.31-43.38,12.66-59.23,0-82-20.1-36.15-88.66-33.48-101-33C1503.82,731.91,1483,755.64,1355.05,831.71Z"/><path class="cls-2" d="M764.05,1079.71c38.24-79.18,33.16-109.29,21-122-22.45-23.45-70.91,10.45-136-18-16.38-7.16-51.62-22.55-61-54-8.3-27.8,11.42-42.08,14-100,1.73-38.68-6.78-38.86-1-53,18.61-45.54,97.48-20.73,143-76,19.88-24.13,33.38-63.52,19-90-7.58-14-21.3-21.37-28-25-25.92-14-52.09-10.12-62-8-31.14,6.67-33.3,24-59,32-28.58,8.95-42.27-7.32-88-18-74.5-17.38-94.18,12.72-144-11-32-15.23-62.27-45.92-57-67,4.31-17.25,28.48-12.19,47-37,21.67-29,3.88-56.4,26-76,11.68-10.34,31.65-16,47-10,24,9.42,17.42,39.88,50,64,6.32,4.68,22.71,16.82,40,13,14.85-3.27,20.4-16.11,30-26,22.24-22.9,52.24-15.58,98-20,31.31-3,69.54-16.34,146-43,53.91-18.79,77.06-30.2,89-19,16.89,15.86-10,57,8,73,12.52,11.15,30.8-4,73-5,38.62-.92,68.35,10.68,82,16,41.62,16.24,42.1,31.36,86,51,15.54,7,14.62,4.68,79,22,61.65,16.59,92.92,25.13,115,37,25.58,13.76,22.94,17.44,60,38,36.31,20.15,47.12,21.2,54,34,13.57,25.24-4.85,65-25,88-37.16,42.41-102.1,52.78-149,46-34.22-4.94-41.15-16.45-64-11-32.77,7.83-51.66,39.45-74,78-37.51,64.74-21.74,73.68-48,103-13,14.49-47.32,32.33-116,68-15.38,8-37,18.95-59,41a171.41,171.41,0,0,0-30,40,162.65,162.65,0,0,0-16,45Z"/><path class="cls-3" d="M973.05,618.71c2.84,21.73,10.91,32.34,18,38,9.05,7.23,15.2,5.39,23,14,11.06,12.21,5.31,23.21,15,30,5.55,3.9,14,2.93,31,1a148.05,148.05,0,0,0,30-6c19-6,30-9.44,38-20,6.19-8.2,13.37-24.43,7-34-8.44-12.69-30.29,2-55-13-12-7.31-11.17-13.43-29-24-13-7.68-23-10.15-27-11-10.57-2.26-20-4.29-30,0C979.8,599.85,974.39,614.63,973.05,618.71Z"/><path class="cls-4" d="M.05,706.71a467.24,467.24,0,0,1,88-76c27.9-18.54,76-49.86,144-63,49.45-9.55,45.41,2.88,89-8,60-15,76.66-40.77,130-41,21.49-.09,41.4,4,56,7,38.24,7.86,45.14,15.77,73,22,28.12,6.3,51.75,4.2,99,0,53-4.7,77.05-13.08,95,3,6.8,6.1,14.11,17,11,24-6.34,14.38-49.1-2.77-65,18-7.36,9.62-7.74,25.75-2,36,2.67,4.78,5.23,5.7,11,11,2.49,2.29,22.91,21.06,24,38,1,16.24-15.77,29.29-27,38-8.58,6.66-45.79,35.54-93,29-40.29-5.57-41.59-30.54-96-55-42-18.9-79.37-21.11-97-22-13.77-.69-70.77-2.53-134,25-35,15.25-32.53,22.34-64,33-45.71,15.49-55.57,2.09-100,15-45.74,13.3-76.92,39.6-94,54a306,306,0,0,0-48,51Z"/><path class="cls-4" d="M453.05.71c.54,11.11-.33,28.18-10,44-25.48,41.71-82.69,26.75-112,70-12.54,18.51-19,46.2-8,61,10,13.48,27.71,7.24,78,12,68.38,6.48,93.46,23.48,101,29,11.65,8.54,31.52,23.09,30,40-1.68,18.64-27.58,21-59,54-15.74,16.55-35.59,37.4-31,56,7,28.4,67.19,36.28,88,39,32.65,4.28,31.91-2.78,76,2,30.1,3.27,69,9,69,9,27.5,4.06,34.29,5.6,45,2,11.52-3.87,15.4-9.61,41-30,15.39-12.25,23.08-18.38,29-22,33.78-20.65,61.76,2.38,110-4,35.46-4.68,28-18.13,83-37,50.91-17.45,96.16-19.25,119-20,28.88-.94,31.52,1.77,83,1,58.84-.87,75.92-4.71,84-17,10.53-16-3.27-32.52,8-48,11.81-16.2,39.24-15,56-14,100,5.78,150,8.67,176,16,77.64,22,96.53,45,133,32,21-7.46,14.51-15,60-47,48-33.78,73.32-38.08,81-64,6.64-22.42-5.11-43.45-6-45-25-43.36-104.65-39.71-142-38-83.19,3.82-95.51,28.18-190,37-60,5.6-111.46,9.47-133-21-22.18-31.38-.2-81.82,7-97Z"/><path class="cls-4" d="M1621.05,596.71c-37-13.64-40.77-32-84-42-24.31-5.62-66.24-9.78-73,5-7.72,16.89,33.32,52.14,59,69,14.78,9.71,40.26,23.71,77,31,35.87,7.12,55,2.38,99,0,98.61-5.32,144.4,10.79,148-1,3.69-12.09-40-43.84-90-56C1693.77,587.32,1675.11,616.63,1621.05,596.71Z"/><path class="cls-4" d="M968.05,1079.71a486.13,486.13,0,0,1,51-60c6-6,29.77-24.76,77-62,24.81-19.55,37.51-29.27,52-26,10.76,2.43,22.11,11.69,22,21-.13,11.58-17.86,15.59-53,38-30.21,19.28-22.93,20-47,34-24.85,14.44-41.19,18.63-58,38a104.89,104.89,0,0,0-12,17Z"/><path class="cls-4" d="M1047.05,690.71c-3.43-11.05-9.88-25.78-23-38-19.34-18-39.7-18-40-27-.3-9.16,20.42-21.82,39-19,16.38,2.49,17.52,14.95,39,28,28.84,17.53,53.18,11.11,55,21s-21.09,22.82-30,27a86.2,86.2,0,0,1-18,6A89,89,0,0,1,1047.05,690.71Z"/><path class="cls-5" d="M6.05,971.71c94.09-55.73,172.73-74.94,228-82,50.43-6.44,94.05-4.3,178-22,67.73-14.28,62.81-20.54,110-28,52-8.21,105.7-3.92,211,5,79,6.69,82.68,9.44,134,12,70,3.5,107,5.34,149,0,32.26-4.09,146.5-18.6,231-101,47-45.8,34-63.06,123-171,38.94-47.2,64.23-71.55,71-78,52.27-49.78,88.46-69.07,134-101,26.8-18.78,38-28.81,195-177,34.61-32.67,84.79-80.07,146-138"/><path class="cls-5" d="M894.05,440.71c18.1,142.58,12.4,255.62,4,331-6.23,55.88-15.36,101.13-18,114a1269.87,1269.87,0,0,1-55,191"/><path class="cls-5" d="M1370.05,584.71c-197.53-110.52-361.29-139-476-144-127.83-5.56-131.13,20.81-297,14-160.17-6.57-242.14-42.15-453-53-61.43-3.16-111.37-3.29-142-3"/><polyline class="cls-6" points="1471.02 870.73 1146.05 471.71 348.69 471.71 348.69 270.13"/><path class="cls-7" d="M1455.05,878.71l-140-171-305.55.79-146-82,.13-134.94"/><path class="cls-8" d="M291.55,791.71H843V505.21h812.18q-.06,6.26-.13,12.5"/><polyline class="cls-9" points="1513.45 311.29 1513.45 486.13 123.12 491.56 123.12 361.72"/><rect class="cls-10" x="1291.1" y="690.37" width="63.52" height="26.41" rx="12" transform="translate(-135.88 1045.69) rotate(-41.21)"/><rect class="cls-10" x="1431.16" y="861.57" width="63.52" height="26.41" rx="12" transform="translate(-213.98 1180.36) rotate(-41.21)"/><rect class="cls-10" x="824.22" y="612.5" width="63.52" height="26.41" rx="12"/><rect class="cls-10" x="1204.76" y="571.89" width="63.52" height="26.41" rx="12" transform="translate(-79.21 959.48) rotate(-41.21)"/><rect class="cls-10" x="977.83" y="695.09" width="63.52" height="26.41" rx="12" transform="translate(301.29 1717.88) rotate(-90)"/><rect class="cls-10" x="1116.83" y="471.83" width="63.52" height="26.41" rx="12" transform="translate(663.55 1633.63) rotate(-90)"/><rect class="cls-10" x="818.4" y="468.29" width="63.52" height="38.22" rx="12" transform="translate(362.76 1337.57) rotate(-90)"/><rect class="cls-10" x="566.9" y="471.45" width="63.52" height="26.41" rx="12" transform="translate(114.01 1083.32) rotate(-90)"/><rect class="cls-10" x="317.32" y="468.06" width="63.52" height="26.41" rx="12" transform="translate(-132.18 830.35) rotate(-90)"/><rect class="cls-10" x="91.32" y="478.06" width="63.52" height="26.41" rx="12" transform="translate(-368.18 614.35) rotate(-90)"/><rect class="cls-10" x="91.32" y="351.06" width="63.52" height="26.41" rx="12"/><rect class="cls-10" x="316.44" y="257.29" width="63.52" height="26.41" rx="12"/><rect class="cls-10" x="1311.44" y="478.29" width="63.52" height="26.41" rx="12" transform="translate(851.7 1834.69) rotate(-90)"/><rect class="cls-10" x="1481.44" y="478.29" width="63.52" height="26.41" rx="12" transform="translate(1021.7 2004.69) rotate(-90)"/><rect class="cls-10" x="1623.44" y="492.29" width="63.52" height="26.41" rx="12" transform="translate(1149.7 2160.69) rotate(-90)"/><rect class="cls-10" x="1481.44" y="298.29" width="63.52" height="26.41" rx="12"/><rect class="cls-10" x="259.44" y="778.29" width="63.52" height="26.41" rx="12" transform="translate(-500.3 1082.69) rotate(-90)"/><rect class="cls-10" x="540.44" y="778.29" width="63.52" height="26.41" rx="12" transform="translate(-219.3 1363.69) rotate(-90)"/><rect class="cls-10" x="810.44" y="778.29" width="63.52" height="26.41" rx="12" transform="translate(50.7 1633.69) rotate(-90)"/></g><g id="Layer_3" data-name="Layer 3"><rect class="cls-11" x="1.5" y="0.5" width="1917" height="1079"/></g></svg>