<svg xmlns="http://www.w3.org/2000/svg" viewBox="0 0 225 298"><defs><style>.cls-1{opacity:0.5;}.cls-2{fill:#fff;}.cls-2,.cls-3{stroke:#000;stroke-miterlimit:10;}</style></defs><g id="Random_assets" data-name="Random assets"><path class="cls-2" d="M196.69,208.66a69.45,69.45,0,1,1-138.89,0,56,56,0,0,1,1-11.53c5.09-26.29,31.06-57.94,68.49-57.92C164,139.23,196.69,169.74,196.69,208.66Z"/><path class="cls-3" d="M57.66,199l37-9.26a49.46,49.46,0,0,0,25.47,4.63c24.28-2.24,37.56-22.62,39.35-25.46L180.35,162q-2.31-10.41-4.63-20.83L53,180.48Q55.36,189.75,57.66,199Z"/><path class="cls-2" d="M53,180.48c-1.7-5.55-5.36-20.14,2.32-30.09,4.85-6.28,13.33-8.13,30.09-11.58,19.15-3.93,19.52-1.51,32.41-4.62,22.7-5.48,28.2-14.57,39.35-11.58,4.91,1.32,12,5.26,18.52,18.52Z"/><path class="cls-3" d="M110.91,136.5c-1-26.25-9.1-36.83-16.21-41.67-10.27-7-21.51-4-32.41-13.89C55,74.34,52.07,65.8,50.72,60.11,59,57.17,61.44,53.3,62.29,50.85c2.41-6.94-5-10.6-9.26-27.78-1.51-6-1.94-10.94-4.63-11.58-2.07-.48-3.35,2.08-6.94,4.63-9.25,6.58-18.26,2.06-20.84,7-1.21,2.31,0,5.4,2.32,11.57,1.56,4.1,2.48,4.93,4.63,9.26,5.54,11.19,4.8,16.5,9.26,18.52,1.23.56,3.41,1.12,6.94,0A41.17,41.17,0,0,0,53,80.94c12.22,13.56,27.64,9.94,39.36,20.84C98,107,104,116.77,104,136.5Z"/></g></svg>