<svg xmlns="http://www.w3.org/2000/svg" viewBox="0 0 238 188"><defs><style>.cls-1{opacity:0.5;}.cls-2{fill:#fff;}.cls-2,.cls-3,.cls-4,.cls-5{stroke:#000;}.cls-2,.cls-3,.cls-4,.cls-5,.cls-6,.cls-7{stroke-miterlimit:10;stroke-width:3px;}.cls-3{fill:#ffe07f;}.cls-4{fill:#ffbe7f;}.cls-5{fill:#e92200;}.cls-6,.cls-7{fill:none;}.cls-6{stroke:#15fff4;}.cls-7{stroke:#d46300;}</style></defs><g id="Layer_35" data-name="Layer 35"><g id="foodEmpty_copy" data-name="foodEmpty copy"><ellipse class="cls-2" cx="120.54" cy="108.21" rx="84.54" ry="46.71"/><ellipse class="cls-2" cx="120.77" cy="107.97" rx="53.32" ry="26.97"/><path class="cls-2" d="M148.45,124.41A23.06,23.06,0,0,0,165,112"/></g><g id="foodCold_copy" data-name="foodCold copy"><ellipse class="cls-2" cx="120.54" cy="108.21" rx="84.54" ry="46.71"/><ellipse class="cls-3" cx="120.77" cy="107.97" rx="76.12" ry="40.81"/><ellipse class="cls-4" cx="120.77" cy="108.13" rx="69.99" ry="35.62"/><ellipse class="cls-5" cx="93.72" cy="91.93" rx="9.75" ry="5.74"/><ellipse class="cls-5" cx="138.86" cy="91.93" rx="9.75" ry="5.74"/><ellipse class="cls-5" cx="120.61" cy="114.89" rx="9.75" ry="5.74"/><ellipse class="cls-5" cx="71.39" cy="109.08" rx="9.75" ry="5.74"/><ellipse class="cls-5" cx="93.72" cy="127.79" rx="9.75" ry="5.74"/><ellipse class="cls-5" cx="148.61" cy="127.79" rx="9.75" ry="5.74"/><ellipse class="cls-5" cx="169.68" cy="103.26" rx="9.75" ry="5.74"/><line class="cls-6" x1="139.94" y1="21.17" x2="166.99" y2="36.89"/><line class="cls-6" x1="139.94" y1="34.14" x2="172.73" y2="20.06"/><line class="cls-6" x1="151.65" y1="36.89" x2="153.46" y2="17.19"/><path class="cls-6" d="M164.05,23.79v0Z"/><line class="cls-6" x1="171.79" y1="27.04" x2="164.05" y2="23.79"/><path class="cls-6" d="M161.41,34.14v0Z"/><line class="cls-6" x1="169.51" y1="32.18" x2="161.41" y2="34.14"/><polyline class="cls-6" points="145.13 36.9 151.66 34.14 156.33 37.42"/><line class="cls-6" x1="150.73" y1="41.85" x2="151.65" y2="34.14"/><path class="cls-6" d="M144.52,32.18,138,27.1Z"/><line class="cls-6" x1="141.9" y1="39.8" x2="144.52" y2="32.18"/><line class="cls-6" x1="135.67" y1="36.89" x2="143.21" y2="32.18"/><polyline class="cls-6" points="137.96 23.79 144.51 23.79 144.51 17.19"/><polyline class="cls-6" points="149.14 19.37 152.56 22.35 158.31 19.37"/><line class="cls-6" x1="96.42" y1="51.61" x2="123.47" y2="67.33"/><line class="cls-6" x1="96.42" y1="64.58" x2="129.21" y2="50.5"/><line class="cls-6" x1="108.14" y1="67.33" x2="109.95" y2="47.63"/><path class="cls-6" d="M120.53,54.23v0Z"/><line class="cls-6" x1="128.27" y1="57.48" x2="120.53" y2="54.23"/><path class="cls-6" d="M117.89,64.58v0Z"/><line class="cls-6" x1="125.99" y1="62.62" x2="117.89" y2="64.58"/><polyline class="cls-6" points="101.61 67.33 108.14 64.58 112.82 67.86"/><line class="cls-6" x1="107.21" y1="72.29" x2="108.14" y2="64.58"/><path class="cls-6" d="M101,62.62l-6.56-5.08Z"/><line class="cls-6" x1="98.39" y1="70.24" x2="101" y2="62.62"/><line class="cls-6" x1="92.15" y1="67.33" x2="99.69" y2="62.62"/><polyline class="cls-6" points="94.44 54.23 101 54.23 101 47.63"/><polyline class="cls-6" points="105.62 49.81 109.04 52.79 114.8 49.81"/><line class="cls-6" x1="158.27" y1="57.18" x2="185.32" y2="72.91"/><line class="cls-6" x1="158.27" y1="70.16" x2="191.06" y2="56.07"/><line class="cls-6" x1="169.99" y1="72.91" x2="171.79" y2="53.21"/><path class="cls-6" d="M182.38,59.8v0Z"/><line class="cls-6" x1="190.12" y1="63.06" x2="182.38" y2="59.8"/><path class="cls-6" d="M179.74,70.16v0Z"/><line class="cls-6" x1="187.84" y1="68.19" x2="179.74" y2="70.16"/><polyline class="cls-6" points="163.46 72.91 169.99 70.16 174.66 73.44"/><line class="cls-6" x1="169.06" y1="77.86" x2="169.99" y2="70.16"/><path class="cls-6" d="M162.85,68.19l-6.56-5.07Z"/><line class="cls-6" x1="160.24" y1="75.82" x2="162.85" y2="68.19"/><line class="cls-6" x1="154" y1="72.91" x2="161.54" y2="68.19"/><polyline class="cls-6" points="156.29 59.8 162.85 59.8 162.85 53.21"/><polyline class="cls-6" points="167.47 55.39 170.89 58.37 176.64 55.39"/></g><g id="foodHot_copy" data-name="foodHot copy"><ellipse class="cls-2" cx="120.54" cy="108.21" rx="84.54" ry="46.71"/><ellipse class="cls-3" cx="120.77" cy="107.97" rx="76.12" ry="40.81"/><ellipse class="cls-4" cx="120.77" cy="108.13" rx="69.99" ry="35.62"/><ellipse class="cls-5" cx="93.72" cy="91.93" rx="9.75" ry="5.74"/><ellipse class="cls-5" cx="138.86" cy="91.93" rx="9.75" ry="5.74"/><ellipse class="cls-5" cx="120.61" cy="114.89" rx="9.75" ry="5.74"/><ellipse class="cls-5" cx="71.39" cy="109.08" rx="9.75" ry="5.74"/><ellipse class="cls-5" cx="93.72" cy="127.79" rx="9.75" ry="5.74"/><ellipse class="cls-5" cx="148.61" cy="127.79" rx="9.75" ry="5.74"/><ellipse class="cls-5" cx="169.68" cy="103.26" rx="9.75" ry="5.74"/><path class="cls-7" d="M96.87,77.7c15.82-7.43,20.15-15,21.07-20.6,1.56-9.52-6.27-15.6-4.56-26.74,1.26-8.2,6.92-14.18,11.48-17.93"/><path class="cls-7" d="M123.17,86c15.82-7.44,20.15-15,21.08-20.61,1.56-9.51-6.27-15.6-4.56-26.73,1.25-8.21,6.92-14.18,11.48-17.93"/><path class="cls-7" d="M155.73,88c15.82-7.43,20.15-15,21.07-20.6,1.56-9.52-6.27-15.6-4.56-26.74,1.26-8.2,6.93-14.18,11.48-17.93"/></g><g id="foodWarm_copy" data-name="foodWarm copy"><ellipse class="cls-2" cx="120.54" cy="108.21" rx="84.54" ry="46.71"/><ellipse class="cls-3" cx="120.77" cy="107.97" rx="76.12" ry="40.81"/><ellipse class="cls-4" cx="120.77" cy="108.13" rx="69.99" ry="35.62"/><ellipse class="cls-5" cx="93.72" cy="91.93" rx="9.75" ry="5.74"/><ellipse class="cls-5" cx="138.86" cy="91.93" rx="9.75" ry="5.74"/><ellipse class="cls-5" cx="120.61" cy="114.89" rx="9.75" ry="5.74"/><ellipse class="cls-5" cx="71.39" cy="109.08" rx="9.75" ry="5.74"/><ellipse class="cls-5" cx="93.72" cy="127.79" rx="9.75" ry="5.74"/><ellipse class="cls-5" cx="148.61" cy="127.79" rx="9.75" ry="5.74"/><ellipse class="cls-5" cx="169.68" cy="103.26" rx="9.75" ry="5.74"/><path class="cls-7" d="M114.11,81.82c15.82-7.43,20.16-15,21.08-20.6,1.56-9.52-6.27-15.6-4.56-26.74,1.26-8.2,6.92-14.18,11.48-17.93"/><path class="cls-7" d="M140.42,90.09c15.82-7.44,20.15-15,21.08-20.61,1.56-9.51-6.27-15.6-4.57-26.73,1.26-8.21,6.93-14.18,11.49-17.93"/></g></g></svg>