<svg xmlns="http://www.w3.org/2000/svg" viewBox="0 0 77.27 116.2"><defs><style>.cls-1{fill:#fff;}.cls-1,.cls-2{stroke:#000;stroke-miterlimit:10;}</style></defs><g id="Layer_2" data-name="Layer 2"><g id="Labels"><path class="cls-1" d="M76.77,85.7a30,30,0,1,1-60,0,24.08,24.08,0,0,1,.41-5c2.2-11.36,13.42-25,29.59-25C62.63,55.71,76.77,68.88,76.77,85.7Z"/><path class="cls-2" d="M16.71,81.53l16-4a21.53,21.53,0,0,0,11,2c10.49-1,16.23-9.78,17-11l9-3c-.67-3-1.33-6-2-9l-53,17C15.38,76.19,16,78.86,16.71,81.53Z"/><path class="cls-1" d="M14.71,73.53c-.74-2.4-2.32-8.7,1-13,2.09-2.72,5.76-3.52,13-5,8.27-1.7,8.43-.66,14-2,9.8-2.37,12.18-6.3,17-5,2.12.56,5.18,2.27,8,8Z"/><path class="cls-2" d="M39.71,54.53c-.44-11.34-3.93-15.92-7-18-4.44-3-9.29-1.73-14-6a17.41,17.41,0,0,1-5-9c3.59-1.27,4.63-3,5-4,1-3-2.14-4.58-4-12-.65-2.61-.84-4.73-2-5-.9-.21-1.45.89-3,2-4,2.84-7.89.88-9,3-.53,1,0,2.33,1,5a38.21,38.21,0,0,0,2,4c2.4,4.83,2.07,7.12,4,8a4.06,4.06,0,0,0,3,0,17.74,17.74,0,0,0,4,8c5.28,5.85,11.94,4.29,17,9,2.44,2.27,5,6.47,5,15Z"/></g></g></svg>