<svg xmlns="http://www.w3.org/2000/svg" viewBox="0 0 84 106"><defs><style>.cls-1{opacity:0.5;}.cls-2{fill:#fff;}.cls-2,.cls-3{stroke:#000;stroke-miterlimit:10;}</style></defs><g id="Random_assets" data-name="Random assets"><path class="cls-2" d="M68,69.34a22,22,0,1,1-44,0,17.65,17.65,0,0,1,.3-3.65C25.94,57.37,34.16,47.35,46,47.36A22.2,22.2,0,0,1,68,69.34Z"/><path class="cls-3" d="M24,66.29l11.72-2.93a15.67,15.67,0,0,0,8.06,1.46c7.69-.71,11.9-7.16,12.46-8.06l6.6-2.2L61.36,48,22.52,60.42Z"/><path class="cls-2" d="M22.52,60.42c-.54-1.75-1.7-6.37.73-9.52,1.54-2,4.22-2.58,9.53-3.67C38.84,46,39,46.75,43,45.77,50.22,44,52,41.16,55.5,42.1c1.55.42,3.79,1.67,5.86,5.87Z"/><path class="cls-3" d="M40.84,46.5c-.32-8.31-2.88-11.66-5.13-13.19C32.46,31.1,28.9,32,25.45,28.91a12.71,12.71,0,0,1-3.66-6.6c2.63-.92,3.39-2.15,3.66-2.93.76-2.19-1.57-3.35-2.93-8.79C22,8.68,21.9,7.12,21.05,6.92c-.65-.15-1.06.66-2.2,1.47-2.92,2.08-5.78.65-6.59,2.2-.39.73,0,1.71.73,3.66a27.66,27.66,0,0,0,1.47,2.93c1.75,3.55,1.52,5.23,2.93,5.87a3,3,0,0,0,2.2,0,13,13,0,0,0,2.93,5.86c3.87,4.29,8.75,3.15,12.46,6.6,1.79,1.66,3.68,4.74,3.66,11Z"/></g></svg>