<svg xmlns="http://www.w3.org/2000/svg" viewBox="0 0 84 106"><defs><style>.cls-1{opacity:0.5;}.cls-2{fill:#fff;}.cls-2,.cls-3{stroke:#000;stroke-miterlimit:10;}</style></defs><g id="Random_assets" data-name="Random assets"><path class="cls-2" d="M16,71a23.6,23.6,0,0,0,47.2,0,19.24,19.24,0,0,0-.32-3.92C61.15,58.17,52.32,47.41,39.6,47.42A23.84,23.84,0,0,0,16,71Z"/><path class="cls-3" d="M63.25,67.74,50.66,64.59A24.66,24.66,0,0,1,41.5,66.5c-3.08,0-9.54.11-12-4a7.78,7.78,0,0,1-.87-5l-7.08-2.36c.53-2.36,1.05-4.72,1.58-7.08L64.82,61.45Z"/><path class="cls-2" d="M64.82,61.45c.58-1.89,1.82-6.85-.79-10.23-1.64-2.14-4.53-2.76-10.22-3.93-6.51-1.34-6.64-.52-11-1.58-7.71-1.86-9.58-5-13.37-3.93-1.67.45-4.07,1.79-6.29,6.29Z"/><path class="cls-3" d="M45.15,46.5c.35-8.92,3.1-12.52,5.51-14.16C54.15,30,58,31,61.67,27.62a13.68,13.68,0,0,0,3.94-7.08c-2.83-1-3.65-2.32-3.94-3.15C60.86,15,63.36,13.79,64.82,8c.51-2,.66-3.72,1.57-3.93.71-.17,1.14.7,2.36,1.57C71.9,7.83,75,6.29,75.83,8c.42.79,0,1.84-.78,3.94A27.16,27.16,0,0,1,73.47,15c-1.88,3.8-1.63,5.61-3.14,6.3a3.23,3.23,0,0,1-2.36,0,14,14,0,0,1-3.15,6.29C60.67,32.23,55.43,31,51.45,34.7c-1.92,1.79-4,5.1-3.94,11.8Z"/></g></svg>