<svg xmlns="http://www.w3.org/2000/svg" viewBox="0 0 306 196"><defs><style>.cls-1{opacity:0.5;}.cls-2{fill:#d4002b;}.cls-2,.cls-3,.cls-4,.cls-5,.cls-6,.cls-7,.cls-8{stroke:#000;stroke-miterlimit:10;}.cls-2,.cls-4,.cls-6{stroke-width:8px;}.cls-3,.cls-5,.cls-7{font-size:76.35px;font-family:MyriadPro-Regular, Myriad Pro;}.cls-4{fill:#007f4d;}.cls-5{stroke-width:0.75px;}.cls-6{fill:#0900e9;}.cls-7{stroke-width:2px;}.cls-8{fill:#d43e00;stroke-width:9px;}</style></defs><g id="Bussit"><g id="bus1_W"><path class="cls-2" d="M79.33,139.08c0,14.51,12.46,25.34,25,24,11-1.17,20.2-11.46,20-24"/><path class="cls-2" d="M173,139c0,14.51,12.46,25.34,25,24,11-1.17,20.2-11.45,20-24"/><path class="cls-2" d="M68,139H231a12.29,12.29,0,0,0,8.48-3.53A12,12,0,0,0,243,127V55a12,12,0,0,0-12-12H68a12.26,12.26,0,0,0-8.47,3.53A11.93,11.93,0,0,0,56,55v72A12,12,0,0,0,68,139Z"/><path class="cls-2" d="M116.82,46.5a35.32,35.32,0,0,1-6.08,27.72A40.9,40.9,0,0,1,91.48,88.08L56,89"/><text class="cls-3" transform="translate(161.01 110.39) scale(1.25 1)">1</text></g><g id="bus1_E"><path class="cls-2" d="M223.67,142.08c0,14.51-12.46,25.34-25,24-11-1.17-20.2-11.46-20-24"/><path class="cls-2" d="M130,142c0,14.51-12.46,25.34-25,24-11-1.17-20.2-11.45-20-24"/><path class="cls-2" d="M235,142H72a12.29,12.29,0,0,1-8.48-3.53A12,12,0,0,1,60,130V58A12,12,0,0,1,72,46H235a12.26,12.26,0,0,1,8.47,3.53A11.93,11.93,0,0,1,247,58v72A12,12,0,0,1,235,142Z"/><path class="cls-2" d="M186.18,49.5a35.32,35.32,0,0,0,6.08,27.72,40.9,40.9,0,0,0,19.26,13.86L247,92"/><text class="cls-3" transform="translate(107.01 116.39) scale(1.25 1)">1</text></g><g id="bus8_E"><path class="cls-4" d="M218.67,142.08c0,14.51-12.46,25.34-25,24-11-1.17-20.2-11.46-20-24"/><path class="cls-4" d="M125,142c0,14.51-12.46,25.34-25,24-11-1.17-20.2-11.45-20-24"/><path class="cls-4" d="M230,142H67a12.29,12.29,0,0,1-8.48-3.53A12,12,0,0,1,55,130V58A12,12,0,0,1,67,46H230a12.26,12.26,0,0,1,8.47,3.53A11.93,11.93,0,0,1,242,58v72A12,12,0,0,1,230,142Z"/><path class="cls-4" d="M181.18,49.5a35.32,35.32,0,0,0,6.08,27.72,40.9,40.9,0,0,0,19.26,13.86L242,92"/><text class="cls-5" transform="translate(101.01 118.39) scale(1.25 1)">8</text></g><g id="bus8_W"><path class="cls-4" d="M83.33,145.08c0,14.51,12.46,25.34,25,24,11-1.17,20.2-11.46,20-24"/><path class="cls-4" d="M177,145c0,14.51,12.46,25.34,25,24,11-1.17,20.2-11.45,20-24"/><path class="cls-4" d="M72,145H235a12.29,12.29,0,0,0,8.48-3.53A12,12,0,0,0,247,133V61a12,12,0,0,0-12-12H72a12.26,12.26,0,0,0-8.47,3.53A11.93,11.93,0,0,0,60,61v72A12,12,0,0,0,72,145Z"/><path class="cls-4" d="M120.82,52.5a35.32,35.32,0,0,1-6.08,27.72A40.9,40.9,0,0,1,95.48,94.08L60,95"/><text class="cls-5" transform="translate(161.01 119.39) scale(1.25 1)">8</text></g><g id="bus4_E"><path class="cls-6" d="M220.67,142.08c0,14.51-12.46,25.34-25,24-11-1.17-20.2-11.46-20-24"/><path class="cls-6" d="M127,142c0,14.51-12.46,25.34-25,24-11-1.17-20.2-11.45-20-24"/><path class="cls-6" d="M232,142H69a12.29,12.29,0,0,1-8.48-3.53A12,12,0,0,1,57,130V58A12,12,0,0,1,69,46H232a12.26,12.26,0,0,1,8.47,3.53A11.93,11.93,0,0,1,244,58v72A12,12,0,0,1,232,142Z"/><path class="cls-6" d="M183.18,49.5a35.32,35.32,0,0,0,6.08,27.72,40.9,40.9,0,0,0,19.26,13.86L244,92"/><text class="cls-7" transform="translate(103.01 120.39) scale(1.25 1)">4</text></g><g id="bus4_W"><path class="cls-6" d="M78.33,145.08c0,14.51,12.46,25.34,25,24,11-1.17,20.2-11.46,20-24"/><path class="cls-6" d="M172,145c0,14.51,12.46,25.34,25,24,11-1.17,20.2-11.45,20-24"/><path class="cls-6" d="M67,145H230a12.29,12.29,0,0,0,8.48-3.53A12,12,0,0,0,242,133V61a12,12,0,0,0-12-12H67a12.26,12.26,0,0,0-8.47,3.53A11.93,11.93,0,0,0,55,61v72A12,12,0,0,0,67,145Z"/><path class="cls-6" d="M115.82,52.5a35.32,35.32,0,0,1-6.08,27.72A40.9,40.9,0,0,1,90.48,94.08L55,95"/><text class="cls-7" transform="translate(139.01 120.82) scale(1.25 1)">4</text></g><g id="bus3_E"><path class="cls-8" d="M223.5,143.27c0,14.52-12.46,25.34-25,24-11-1.17-20.2-11.45-20-24"/><path class="cls-8" d="M129.83,143.2c0,14.51-12.46,25.33-25,24-11-1.17-20.2-11.46-20-24"/><path class="cls-8" d="M234.83,143.2h-163a12.35,12.35,0,0,1-8.48-3.53,12,12,0,0,1-3.52-8.47v-72a12,12,0,0,1,12-12h163a12.23,12.23,0,0,1,8.47,3.52,12,12,0,0,1,3.53,8.48v72A12,12,0,0,1,234.83,143.2Z"/><path class="cls-8" d="M186,50.7a35.3,35.3,0,0,0,6.08,27.71,40.75,40.75,0,0,0,19.26,13.86l35.48.93"/><text class="cls-3" transform="translate(107.33 119.6) scale(1.25 1)">3</text></g><g id="bus3_W"><path class="cls-8" d="M78.43,143.27c0,14.52,12.47,25.34,25,24,11-1.17,20.2-11.45,20-24"/><path class="cls-8" d="M172.1,143.2c0,14.51,12.47,25.33,25,24,11-1.17,20.2-11.46,20-24"/><path class="cls-8" d="M67.1,143.2h163a12.35,12.35,0,0,0,8.48-3.53,12,12,0,0,0,3.52-8.47v-72a12,12,0,0,0-12-12H67.1a12.26,12.26,0,0,0-8.47,3.52A12,12,0,0,0,55.1,59.2v72A12,12,0,0,0,67.1,143.2Z"/><path class="cls-8" d="M115.92,50.7a35.25,35.25,0,0,1-6.08,27.71A40.71,40.71,0,0,1,90.58,92.27L55.1,93.2"/><text class="cls-3" transform="translate(151.83 116.56) scale(1.25 1)">3</text></g></g></svg>