<svg xmlns="http://www.w3.org/2000/svg" viewBox="0 0 370 286"><defs><style>.cls-1{opacity:0.5;}.cls-2{fill:#fff;}.cls-2,.cls-3{stroke:#000;stroke-miterlimit:10;}</style></defs><g id="Random_assets" data-name="Random assets"><path class="cls-2" d="M213.5,115.5a68.06,68.06,0,0,1-9,28,66.73,66.73,0,0,1-10,13,71.57,71.57,0,0,0,51-31"/><path class="cls-2" d="M195.63,204.66a69.45,69.45,0,1,1-138.89,0,56,56,0,0,1,.95-11.53c5.1-26.29,31.07-57.94,68.5-57.92C162.91,135.23,195.63,165.74,195.63,204.66Z"/><path class="cls-3" d="M56.6,195l37-9.26a49.46,49.46,0,0,0,25.47,4.63c24.29-2.24,37.57-22.62,39.35-25.46L179.3,158q-2.33-10.41-4.63-20.83L52,176.48Z"/><path class="cls-2" d="M52,176.48c-1.71-5.55-5.37-20.14,2.31-30.09,4.85-6.28,13.33-8.13,30.09-11.58,19.16-3.93,19.52-1.51,32.41-4.62,22.7-5.48,28.2-14.57,39.36-11.58,4.9,1.32,12,5.26,18.52,18.52Z"/><path class="cls-3" d="M109.85,132.5c-1-26.25-9.1-36.83-16.21-41.67-10.27-7-21.51-4-32.41-13.89C54,70.34,51,61.8,49.66,56.11,58,53.17,60.39,49.3,61.23,46.85c2.41-6.94-4.95-10.6-9.25-27.78C50.46,13,50,8.13,47.35,7.49,45.27,7,44,9.57,40.4,12.12c-9.24,6.58-18.26,2.06-20.83,7-1.22,2.31,0,5.4,2.31,11.57,1.57,4.1,2.48,4.93,4.63,9.26,5.55,11.19,4.8,16.5,9.26,18.52,1.23.56,3.41,1.12,6.95,0A41.07,41.07,0,0,0,52,76.94C64.19,90.5,79.61,86.88,91.33,97.78,97,103,103,112.77,102.9,132.5Z"/><ellipse class="cls-2" cx="265" cy="73.5" rx="85.5" ry="53"/></g></svg>