<svg xmlns="http://www.w3.org/2000/svg" viewBox="0 0 134 115"><defs><style>.cls-1{opacity:0.5;}.cls-2{fill:#fff;}.cls-2,.cls-3,.cls-4,.cls-5,.cls-6{stroke:#000;}.cls-2,.cls-3,.cls-4,.cls-5,.cls-6,.cls-7{stroke-miterlimit:10;}.cls-4{fill:#ffe07f;}.cls-5{fill:#ffbe7f;}.cls-6{fill:#e92200;}.cls-7{fill:none;stroke:#d46300;}</style></defs><g id="Random_assets" data-name="Random assets"><path class="cls-2" d="M79.86,43.89a22.1,22.1,0,0,1-2.91,9,21.51,21.51,0,0,1-3.23,4.2,23.15,23.15,0,0,0,16.47-10"/><path class="cls-2" d="M74.09,72.68a22.43,22.43,0,1,1-44.85,0A17.82,17.82,0,0,1,29.55,69c1.64-8.49,10-18.71,22.11-18.7A22.64,22.64,0,0,1,74.09,72.68Z"/><path class="cls-3" d="M29.2,69.56l12-3a16,16,0,0,0,8.22,1.5c7.84-.72,12.13-7.31,12.7-8.22l6.73-2.25c-.5-2.24-1-4.48-1.49-6.72L27.7,63.58Z"/><path class="cls-2" d="M27.7,63.58c-.55-1.79-1.73-6.5.75-9.71,1.56-2,4.3-2.63,9.72-3.74,6.18-1.27,6.3-.49,10.46-1.5,7.33-1.76,9.11-4.7,12.71-3.73,1.58.42,3.87,1.7,6,6Z"/><path class="cls-3" d="M46.39,49.38c-.33-8.47-2.94-11.89-5.23-13.45-3.32-2.26-6.95-1.29-10.47-4.49A13.06,13.06,0,0,1,27,24.72c2.69-.95,3.47-2.2,3.74-3,.78-2.25-1.6-3.43-3-9-.49-1.95-.63-3.54-1.49-3.74-.67-.16-1.09.67-2.25,1.49-3,2.13-5.89.67-6.72,2.25-.4.74,0,1.74.74,3.73a28.8,28.8,0,0,0,1.5,3c1.79,3.62,1.55,5.33,3,6a3,3,0,0,0,2.24,0,13.31,13.31,0,0,0,3,6c3.95,4.38,8.92,3.21,12.71,6.73,1.82,1.7,3.76,4.84,3.74,11.21Z"/><ellipse class="cls-2" cx="96.48" cy="30.33" rx="27.61" ry="17.11"/></g><g id="Layer_35" data-name="Layer 35"><g id="foodWarm_copy" data-name="foodWarm copy"><ellipse class="cls-2" cx="96.04" cy="33.18" rx="15.96" ry="8.82"/><ellipse class="cls-4" cx="96.08" cy="33.14" rx="14.37" ry="7.71"/><ellipse class="cls-5" cx="96.08" cy="33.17" rx="13.22" ry="6.73"/><ellipse class="cls-6" cx="90.97" cy="30.11" rx="1.84" ry="1.08"/><ellipse class="cls-6" cx="99.5" cy="30.11" rx="1.84" ry="1.08"/><ellipse class="cls-6" cx="96.05" cy="34.44" rx="1.84" ry="1.08"/><ellipse class="cls-6" cx="86.75" cy="33.34" rx="1.84" ry="1.08"/><ellipse class="cls-6" cx="90.97" cy="36.88" rx="1.84" ry="1.08"/><ellipse class="cls-6" cx="101.34" cy="36.88" rx="1.84" ry="1.08"/><ellipse class="cls-6" cx="105.32" cy="32.25" rx="1.84" ry="1.08"/><path class="cls-7" d="M94.82,28.2c3-1.41,3.81-2.83,4-3.89.3-1.8-1.18-2.95-.86-5a5.7,5.7,0,0,1,2.17-3.39"/><path class="cls-7" d="M99.79,29.76c3-1.41,3.81-2.83,4-3.89.3-1.8-1.18-2.95-.86-5.05a5.7,5.7,0,0,1,2.17-3.39"/></g></g></svg>