<svg xmlns="http://www.w3.org/2000/svg" viewBox="0 0 195 130.01"><defs><style>.cls-1{fill:#0900e9;stroke-width:8px;}.cls-1,.cls-2{stroke:#000;stroke-miterlimit:10;}.cls-2{font-size:76.35px;stroke-width:2px;font-family:MyriadPro-Regular, Myriad Pro;}</style></defs><g id="Layer_2" data-name="Layer 2"><g id="Random_assets" data-name="Random assets"><g id="Bussi4"><g id="itaan"><path class="cls-1" d="M167.67,101.9c0,14.51-12.46,25.34-25,24-11-1.17-20.2-11.45-20-24"/><path class="cls-1" d="M74,101.82c0,14.51-12.46,25.34-25,24-11-1.17-20.2-11.45-20-24"/><path class="cls-1" d="M179,101.82H16A12.27,12.27,0,0,1,7.52,98.3,12,12,0,0,1,4,89.82v-72a12,12,0,0,1,12-12H179a12.31,12.31,0,0,1,8.47,3.53A11.93,11.93,0,0,1,191,17.82v72A12,12,0,0,1,179,101.82Z"/><path class="cls-1" d="M130.18,9.32A35.32,35.32,0,0,0,136.26,37,40.75,40.75,0,0,0,155.52,50.9l35.48.92"/><text class="cls-2" transform="translate(50.01 80.21) scale(1.25 1)">4</text></g><g id="lanteen"><path class="cls-1" d="M27.33,100.08c0,14.51,12.46,25.34,25,24,11-1.17,20.2-11.46,20-24"/><path class="cls-1" d="M121,100c0,14.51,12.46,25.34,25,24,11-1.17,20.2-11.45,20-24"/><path class="cls-1" d="M16,100H179a12.29,12.29,0,0,0,8.48-3.53A12,12,0,0,0,191,88V16A12,12,0,0,0,179,4H16A12.26,12.26,0,0,0,7.53,7.53,11.93,11.93,0,0,0,4,16V88A12,12,0,0,0,16,100Z"/><path class="cls-1" d="M64.82,7.5a35.32,35.32,0,0,1-6.08,27.72A40.9,40.9,0,0,1,39.48,49.08L4,50"/><text class="cls-2" transform="translate(88.01 75.82) scale(1.25 1)">4</text></g></g></g></g></svg>