<svg xmlns="http://www.w3.org/2000/svg" viewBox="0 0 1378 1057"><defs><style>.cls-1{opacity:0.5;}.cls-2{fill:#fff;}.cls-2,.cls-3,.cls-4,.cls-5{stroke:#000;stroke-width:7px;}.cls-2,.cls-3,.cls-4,.cls-5,.cls-6,.cls-7{stroke-miterlimit:10;}.cls-3{fill:#ffe07f;}.cls-4{fill:#ffbe7f;}.cls-5{fill:#e92200;}.cls-6,.cls-7{fill:none;stroke-width:20px;}.cls-6{stroke:#15fff4;}.cls-7{stroke:#d46300;}</style></defs><g id="Layer_35" data-name="Layer 35"><g id="foodEmpty"><ellipse class="cls-2" cx="689" cy="706.5" rx="537.5" ry="297"/><ellipse class="cls-2" cx="690.5" cy="705" rx="339" ry="171.5"/><path class="cls-2" d="M866.5,809.5a146.79,146.79,0,0,0,105-79"/></g><g id="foodCold"><ellipse class="cls-2" cx="689" cy="706.5" rx="537.5" ry="297"/><ellipse class="cls-3" cx="690.5" cy="705" rx="484" ry="259.5"/><ellipse class="cls-4" cx="690.5" cy="706" rx="445" ry="226.5"/><ellipse class="cls-5" cx="518.5" cy="603" rx="62" ry="36.5"/><ellipse class="cls-5" cx="805.5" cy="603" rx="62" ry="36.5"/><ellipse class="cls-5" cx="689.5" cy="749" rx="62" ry="36.5"/><ellipse class="cls-5" cx="376.5" cy="712" rx="62" ry="36.5"/><ellipse class="cls-5" cx="518.5" cy="831" rx="62" ry="36.5"/><ellipse class="cls-5" cx="867.5" cy="831" rx="62" ry="36.5"/><ellipse class="cls-5" cx="1001.5" cy="675" rx="62" ry="36.5"/><line class="cls-6" x1="607.36" y1="368.06" x2="779.36" y2="468.06"/><line class="cls-6" x1="607.36" y1="450.56" x2="815.86" y2="361.01"/><line class="cls-6" x1="681.86" y1="468.06" x2="693.36" y2="342.78"/><path class="cls-6" d="M760.66,384.72v0Z"/><line class="cls-6" x1="809.87" y1="405.42" x2="760.66" y2="384.72"/><path class="cls-6" d="M743.86,450.56v0Z"/><line class="cls-6" x1="795.36" y1="438.06" x2="743.86" y2="450.56"/><polyline class="cls-6" points="640.35 468.06 681.87 450.56 711.62 471.4"/><line class="cls-6" x1="675.98" y1="499.54" x2="681.86" y2="450.56"/><path class="cls-6" d="M636.47,438.06l-41.69-32.28Z"/><line class="cls-6" x1="619.86" y1="486.56" x2="636.47" y2="438.06"/><line class="cls-6" x1="580.2" y1="468.06" x2="628.17" y2="438.06"/><polyline class="cls-6" points="594.78 384.72 636.47 384.72 636.47 342.78"/><polyline class="cls-6" points="665.87 356.64 687.62 375.59 724.2 356.64"/><line class="cls-6" x1="972.36" y1="339.06" x2="1144.36" y2="439.06"/><line class="cls-6" x1="972.36" y1="421.56" x2="1180.86" y2="332.01"/><line class="cls-6" x1="1046.86" y1="439.06" x2="1058.36" y2="313.78"/><path class="cls-6" d="M1125.66,355.72v0Z"/><line class="cls-6" x1="1174.87" y1="376.42" x2="1125.66" y2="355.72"/><path class="cls-6" d="M1108.86,421.56v0Z"/><line class="cls-6" x1="1160.36" y1="409.06" x2="1108.86" y2="421.56"/><polyline class="cls-6" points="1005.35 439.06 1046.87 421.56 1076.62 442.4"/><line class="cls-6" x1="1040.98" y1="470.54" x2="1046.86" y2="421.56"/><path class="cls-6" d="M1001.47,409.06l-41.69-32.28Z"/><line class="cls-6" x1="984.86" y1="457.56" x2="1001.47" y2="409.06"/><line class="cls-6" x1="945.2" y1="439.06" x2="993.17" y2="409.06"/><polyline class="cls-6" points="959.78 355.72 1001.47 355.72 1001.47 313.78"/><polyline class="cls-6" points="1030.87 327.64 1052.62 346.59 1089.2 327.64"/><line class="cls-6" x1="812.36" y1="153.06" x2="984.36" y2="253.06"/><line class="cls-6" x1="812.36" y1="235.56" x2="1020.86" y2="146.01"/><line class="cls-6" x1="886.86" y1="253.06" x2="898.36" y2="127.78"/><path class="cls-6" d="M965.66,169.72v0Z"/><line class="cls-6" x1="1014.87" y1="190.42" x2="965.66" y2="169.72"/><path class="cls-6" d="M948.86,235.56v0Z"/><line class="cls-6" x1="1000.36" y1="223.06" x2="948.86" y2="235.56"/><polyline class="cls-6" points="845.35 253.06 886.87 235.56 916.62 256.4"/><line class="cls-6" x1="880.98" y1="284.54" x2="886.86" y2="235.56"/><path class="cls-6" d="M841.47,223.06l-41.69-32.28Z"/><line class="cls-6" x1="824.86" y1="271.56" x2="841.47" y2="223.06"/><line class="cls-6" x1="785.2" y1="253.06" x2="833.17" y2="223.06"/><polyline class="cls-6" points="799.78 169.72 841.47 169.72 841.47 127.78"/><polyline class="cls-6" points="870.87 141.64 892.62 160.59 929.2 141.64"/></g><g id="foodHot"><ellipse class="cls-2" cx="689" cy="706.5" rx="537.5" ry="297"/><ellipse class="cls-3" cx="690.5" cy="705" rx="484" ry="259.5"/><ellipse class="cls-4" cx="690.5" cy="706" rx="445" ry="226.5"/><ellipse class="cls-5" cx="518.5" cy="603" rx="62" ry="36.5"/><ellipse class="cls-5" cx="805.5" cy="603" rx="62" ry="36.5"/><ellipse class="cls-5" cx="689.5" cy="749" rx="62" ry="36.5"/><ellipse class="cls-5" cx="376.5" cy="712" rx="62" ry="36.5"/><ellipse class="cls-5" cx="518.5" cy="831" rx="62" ry="36.5"/><ellipse class="cls-5" cx="867.5" cy="831" rx="62" ry="36.5"/><ellipse class="cls-5" cx="1001.5" cy="675" rx="62" ry="36.5"/><path class="cls-7" d="M538.5,512.5c100.58-47.26,128.12-95.17,134-131,9.92-60.51-39.85-99.19-29-170,8-52.15,44-90.15,73-114"/><path class="cls-7" d="M705.76,565.06c100.58-47.26,128.12-95.16,134-131,9.92-60.51-39.85-99.19-29-170,8-52.15,44-90.15,73-114"/><path class="cls-7" d="M912.76,578.06c100.58-47.26,128.12-95.16,134-131,9.92-60.51-39.85-99.19-29-170,8-52.15,44-90.15,73-114"/></g><g id="foodWarm"><ellipse class="cls-2" cx="689" cy="706.5" rx="537.5" ry="297"/><ellipse class="cls-3" cx="690.5" cy="705" rx="484" ry="259.5"/><ellipse class="cls-4" cx="690.5" cy="706" rx="445" ry="226.5"/><ellipse class="cls-5" cx="518.5" cy="603" rx="62" ry="36.5"/><ellipse class="cls-5" cx="805.5" cy="603" rx="62" ry="36.5"/><ellipse class="cls-5" cx="689.5" cy="749" rx="62" ry="36.5"/><ellipse class="cls-5" cx="376.5" cy="712" rx="62" ry="36.5"/><ellipse class="cls-5" cx="518.5" cy="831" rx="62" ry="36.5"/><ellipse class="cls-5" cx="867.5" cy="831" rx="62" ry="36.5"/><ellipse class="cls-5" cx="1001.5" cy="675" rx="62" ry="36.5"/><path class="cls-7" d="M648.17,538.7c100.59-47.26,128.13-95.17,134-131,9.93-60.51-39.85-99.19-29-170,8-52.15,44-90.15,73-114"/><path class="cls-7" d="M815.43,591.26c100.59-47.26,128.13-95.16,134-131,9.93-60.51-39.85-99.19-29-170,8-52.15,44-90.15,73-114"/></g></g></svg>