<svg xmlns="http://www.w3.org/2000/svg" viewBox="0 0 448 380"><defs><style>.cls-1{opacity:0.5;}.cls-2{fill:#c7f2ed;}.cls-2,.cls-5,.cls-6{stroke:#000;}.cls-2,.cls-3,.cls-4,.cls-5,.cls-6{stroke-miterlimit:10;stroke-width:6px;}.cls-3{fill:#b5f4e9;}.cls-3,.cls-4{stroke:#00fbff;}.cls-4{fill:#bdebf2;}.cls-5{fill:#ffc394;}.cls-6{fill:#d46f00;}</style></defs><g id="Random_assets" data-name="Random assets"><g id="Layer_18" data-name="Layer 18"><rect class="cls-2" x="56" y="157.28" width="79.19" height="191.72"/><rect class="cls-2" x="305.57" y="157.41" width="79.19" height="191.72"/><path class="cls-2" d="M56,157C72.11,79.4,140.92,23.24,220,23c79.45-.24,148.82,56,165,134Z"/><path class="cls-3" d="M56,157C87.47,92.92,153.17,52.65,224,54c68.37,1.3,130.67,41.18,161,103"/><path class="cls-4" d="M56,157c10.84-10.77,72-69.44,168-68,91.51,1.37,149.31,56.38,161,68"/><path class="cls-5" d="M321.31,289.55c9.12-7.6,13.54-17.68,17.1-25.8,5.09-11.61,4.11-23.81,3.68-29.23-.89-11.11-4.08-18.67.9-24,1.82-1.93,5.14-4,8-3,3.49,1.13,5.14,6.23,6.2,11.57,4.1,20.7-1.46,40.73-2.77,45.29-4.4,15.24-9.77,25.32-17.56,33.35-6.59,6.79-10.61,7.68-13.58,6.88-3.27-.87-6.37-4.07-6.75-7.19C316.12,293.68,319.73,290.87,321.31,289.55Z"/><path class="cls-6" d="M320.31,299.33c11.59-11.07,17.91-25,23-36.14,7.26-16,7.41-32.11,7.48-39.28.13-14.68-2.84-24.4,3.62-31.94,2.36-2.77,6.51-5.85,9.84-4.9,4,1.13,5.42,7.73,6.1,14.73,2.65,27.1-6.07,54.34-8.12,60.55-6.83,20.74-14.25,34.72-24.34,46.24-8.53,9.73-13.37,11.34-16.8,10.6a9.76,9.76,0,0,1-7.23-8.85C313.72,305.39,318.29,301.26,320.31,299.33Z"/><path class="cls-5" d="M336.64,296.39c9-8.51,13.87-19.24,17.79-27.87,5.59-12.34,5.6-24.84,5.61-30.4,0-11.38-2.37-18.93,2.64-24.73,1.83-2.13,5.07-4.49,7.68-3.74,3.15.91,4.29,6,4.87,11.46,2.25,21-4.41,42.07-6,46.87-5.22,16-10.95,26.82-18.79,35.69-6.62,7.49-10.4,8.7-13.1,8.11a7.74,7.74,0,0,1-5.71-6.9C331.51,301,335.07,297.87,336.64,296.39Z"/><path class="cls-5" d="M72,298.58c9.11-7.59,13.53-17.68,17.09-25.8,5.09-11.6,4.12-23.8,3.69-29.23-.89-11.11-4.08-18.67.89-23.94,1.83-1.93,5.15-4,8-3,3.5,1.14,5.14,6.23,6.2,11.58,4.1,20.69-1.45,40.72-2.77,45.29-4.4,15.24-9.76,25.31-17.56,33.35-6.59,6.79-10.6,7.67-13.57,6.87-3.27-.87-6.38-4.07-6.75-7.19C66.84,302.72,70.45,299.9,72,298.58Z"/><path class="cls-6" d="M71,308.37c11.6-11.08,17.91-25,23-36.15,7.26-16,7.41-32.1,7.48-39.27.14-14.69-2.83-24.41,3.62-31.95,2.37-2.76,6.52-5.84,9.84-4.9,4,1.14,5.42,7.74,6.1,14.74,2.65,27.09-6.07,54.33-8.11,60.54-6.84,20.75-14.26,34.72-24.35,46.24-8.52,9.73-13.37,11.34-16.8,10.6a9.74,9.74,0,0,1-7.22-8.85C64.44,314.42,69,310.3,71,308.37Z"/><path class="cls-5" d="M87.36,305.42c9-8.51,13.88-19.23,17.79-27.87,5.59-12.34,5.61-24.83,5.62-30.39,0-11.38-2.38-18.93,2.63-24.74,1.84-2.13,5.07-4.49,7.68-3.74,3.16.91,4.3,6,4.88,11.46,2.24,21-4.42,42.08-6,46.88-5.23,16-11,26.82-18.79,35.68-6.62,7.49-10.41,8.71-13.1,8.11a7.73,7.73,0,0,1-5.72-6.9C82.23,310.07,85.79,306.9,87.36,305.42Z"/><path class="cls-2" d="M56,157H385"/></g></g></svg>