<svg xmlns="http://www.w3.org/2000/svg" viewBox="0 0 187 153"><defs><style>.cls-1{opacity:0.5;}.cls-2{fill:#fff;}.cls-2,.cls-3,.cls-4,.cls-5{stroke:#000;}.cls-2,.cls-3,.cls-4,.cls-5,.cls-6{stroke-miterlimit:10;stroke-width:3px;}.cls-3{fill:#ffe07f;}.cls-4{fill:#ffbe7f;}.cls-5{fill:#e92200;}.cls-6{fill:none;stroke:#d46300;}</style></defs><g id="Layer_35" data-name="Layer 35"><g id="foodHot_copy" data-name="foodHot copy"><rect class="cls-2" x="0.5" y="-0.5" width="186" height="153"/><ellipse class="cls-2" cx="96.54" cy="96.21" rx="84.54" ry="46.71"/><ellipse class="cls-3" cx="96.77" cy="95.97" rx="76.12" ry="40.81"/><ellipse class="cls-4" cx="96.77" cy="96.13" rx="69.99" ry="35.62"/><ellipse class="cls-5" cx="69.72" cy="79.93" rx="9.75" ry="5.74"/><ellipse class="cls-5" cx="114.86" cy="79.93" rx="9.75" ry="5.74"/><ellipse class="cls-5" cx="96.61" cy="102.89" rx="9.75" ry="5.74"/><ellipse class="cls-5" cx="47.39" cy="97.08" rx="9.75" ry="5.74"/><ellipse class="cls-5" cx="69.72" cy="115.79" rx="9.75" ry="5.74"/><ellipse class="cls-5" cx="124.61" cy="115.79" rx="9.75" ry="5.74"/><ellipse class="cls-5" cx="145.68" cy="91.26" rx="9.75" ry="5.74"/><path class="cls-6" d="M72.87,65.7c15.82-7.43,20.15-15,21.07-20.6,1.56-9.52-6.27-15.6-4.56-26.74C90.64,10.16,96.3,4.18,100.86.43"/><path class="cls-6" d="M99.17,74c15.82-7.44,20.15-15,21.08-20.61,1.56-9.51-6.27-15.6-4.56-26.73,1.25-8.21,6.92-14.18,11.48-17.93"/><path class="cls-6" d="M131.73,76c15.82-7.43,20.15-15,21.07-20.6,1.56-9.52-6.27-15.6-4.56-26.74,1.26-8.2,6.93-14.18,11.48-17.93"/></g></g></svg>