<svg xmlns="http://www.w3.org/2000/svg" viewBox="0 0 1921 1081"><defs><style>.cls-1{fill:#009245;stroke:#009245;}.cls-1,.cls-10,.cls-4,.cls-5,.cls-6,.cls-7,.cls-9{stroke-miterlimit:10;}.cls-2{fill:#b3b3b3;}.cls-3{fill:aqua;}.cls-4,.cls-5,.cls-6{fill:none;}.cls-4,.cls-7{stroke:#f7931e;}.cls-10,.cls-4,.cls-5,.cls-6,.cls-7,.cls-9{stroke-width:10px;}.cls-5,.cls-9{stroke:#1b1464;}.cls-10,.cls-6{stroke:red;}.cls-7{fill:#f7931e;}.cls-8{font-size:55.93px;fill:#fff;font-family:MyriadPro-Regular, Myriad Pro;}.cls-9{fill:#1b1464;}.cls-10{fill:red;}</style></defs><g id="Layer_2" data-name="Layer 2"><g id="BKG"><rect class="cls-1" x="0.5" y="0.5" width="1920" height="1080"/></g><g id="Layer_4" data-name="Layer 4"><path class="cls-2" d="M498.28,441.63c-52.52-40-75.46-128.52-47.78-160.31,15.28-17.54,32.12-1.89,86.67-15.21,42.5-10.38,44.64-22.89,110-49.14,53.35-21.43,80.56-31.95,106.66-22.23,31.49,11.71,28.68,37.49,58.89,65.52,47.43,44,89.9,13.47,214.45,41,75,16.54,132.22,40.95,132.22,40.95,66.48,28.34,84,48.59,114.44,39.78,40.09-11.6,39-55.24,92.23-78.39,10.37-4.52,53.28-23.19,76.66-4.69,43.23,34.22-6.34,174.94-33.33,251.58-30.16,85.63-45.24,128.44-80,163.81-94.52,96.18-229.38,78.92-241.11,77.23-40.69-5.89-70.14-19.67-87.78-28.09-26.42-12.6-109.18-52.1-148.89-135.73-37.54-79,2.15-115.9-31.11-147.43-50.1-47.5-157,20.12-285.56-19.89A116.38,116.38,0,0,1,498.28,441.63Z"/></g><g id="Vesi"><path class="cls-3" d="M333.83,1080.5c-15.09-46.27-42.3-151.21-11.11-275,12.85-51,38.48-152.3,121.11-209.45,62.32-43.1,131.65-43.6,252.23-44.46,101.62-.73,148.57,15,211.11-21.07,43.58-25.11,84.41-69.4,76.66-86.58-6.13-13.62-43.32-11.45-67.77-4.68-34,9.41-41.8,22.79-66.67,29.25-36.6,9.51-64.82-10.72-101.11-26.91-12.2-5.45-94.82-41.44-166.67-31.6-71.18,9.76-125.23,65.4-233.33,176.69-23.3,24-36.92,39.6-36.92,39.61-26.58,30.28-37.6,47.4-74.19,84.42A901.21,901.21,0,0,1,.5,882.75V1080.5Z"/><path class="cls-3" d="M777.17.5c42.6,21.86,70.58,63.46,71.11,107.65.08,7.28.58,47-24.45,72.55-18.29,18.68-33.41,13.46-47.77,33.93-14.82,21.12-13,47-12.23,57.33.17,2.4,3,36.1,24.45,62,44.39,53.62,152.4,54.32,197.78,5.85,17.32-18.51,18.59-36.8,42.22-48,15.73-7.44,24.23-3.62,68.89-8.19,24-2.45,36.07-3.68,48.89-7,45.84-11.92,46.57-33.56,78.88-40.95,31.94-7.3,38.15,12.24,104.45,21.06,36.65,4.88,65.48,8.71,75.55-7,11.34-17.69-6.15-52.15-23.33-71.38-6.06-6.77-26.42-27.72-67.78-35.1-89.51-16-136.39,42.08-173.33,21.06-19.67-11.19-39.22-46.6-25.56-163.81"/></g><g id="Layer_5" data-name="Layer 5"><polyline class="cls-4" points="719.39 179.53 719.39 375.17 1157.17 375.17 1157.17 689.69"/></g><g id="Layer_6" data-name="Layer 6"><polyline class="cls-5" points="608.28 622.99 998.05 622.99 998.05 407.98 1426.74 407.98"/></g><g id="Layer_7" data-name="Layer 7"><polyline class="cls-6" points="517.17 294.19 517.17 391.94 1297.17 391.94 1297.17 294.19"/></g><g id="Labels"><rect class="cls-7" x="1132.72" y="689.69" width="50" height="52.65"/><text class="cls-8" transform="translate(1144.72 733.04) scale(0.95 1)">3</text><rect class="cls-7" x="693.83" y="126.87" width="50" height="52.65"/><text class="cls-8" transform="translate(705.83 170.23) scale(0.95 1)">3</text><rect class="cls-9" x="558.28" y="597.25" width="50" height="52.65"/><text class="cls-8" transform="translate(570.28 640.61) scale(0.95 1)">1</text><rect class="cls-9" x="1427.17" y="381.95" width="50" height="52.65"/><text class="cls-8" transform="translate(1439.17 425.31) scale(0.95 1)">1</text><rect class="cls-10" x="491.61" y="241.54" width="50" height="52.65"/><text class="cls-8" transform="translate(503.61 284.9) scale(0.95 1)">8</text><rect class="cls-10" x="1272.72" y="241.54" width="50" height="52.65"/><text class="cls-8" transform="translate(1284.72 284.9) scale(0.95 1)">8</text></g></g></svg>