<svg xmlns="http://www.w3.org/2000/svg" viewBox="0 0 1728 923"><defs><style>.cls-1{fill:#009245;}.cls-2{fill:#b3b3b3;}.cls-3{fill:aqua;}.cls-4,.cls-5,.cls-6{fill:none;}.cls-4,.cls-7{stroke:#f7931e;}.cls-10,.cls-4,.cls-5,.cls-6,.cls-7,.cls-9{stroke-miterlimit:10;stroke-width:10px;}.cls-5,.cls-9{stroke:#1b1464;}.cls-10,.cls-6{stroke:red;}.cls-7{fill:#f7931e;}.cls-8{font-size:47.8px;fill:#fff;font-family:MyriadPro-Regular, Myriad Pro;}.cls-9{fill:#1b1464;}.cls-10{fill:red;}</style></defs><g id="Layer_2" data-name="Layer 2"><g id="BKG"><rect class="cls-1" width="1728" height="923"/></g><g id="Layer_4" data-name="Layer 4"><path class="cls-2" d="M448,377c-47.27-34.18-67.91-109.84-43-137,13.75-15,28.91-1.62,78-13,38.26-8.87,40.18-19.57,99-42,48-18.31,72.51-27.3,96-19,28.34,10,25.81,32,53,56,42.68,37.61,80.91,11.51,193,35,67.47,14.14,119,35,119,35,59.84,24.22,75.61,41.53,103,34,36.08-9.92,35.11-47.21,83-67,9.34-3.86,48-19.81,69-4,38.9,29.24-5.71,149.5-30,215-27.15,73.18-40.72,109.77-72,140-85.07,82.2-206.44,67.45-217,66-36.62-5-63.13-16.81-79-24-23.77-10.78-98.26-44.53-134-116-33.78-67.56,1.93-99.05-28-126-45.09-40.59-141.32,17.2-257-17A107.08,107.08,0,0,1,448,377Z"/></g><g id="Vesi"><path class="cls-3" d="M300,923c-13.59-39.55-38.07-129.23-10-235,11.56-43.57,34.63-130.16,109-179,56.08-36.84,118.48-37.26,227-38,91.46-.62,133.72,12.79,190-18,39.23-21.46,76-59.31,69-74-5.52-11.64-39-9.78-61-4-30.64,8.05-37.62,19.48-60,25-32.94,8.13-58.34-9.16-91-23-11-4.65-85.34-35.42-150-27-64.06,8.34-112.71,55.89-210,151-21,20.5-33.22,33.85-33.22,33.85C255.86,560.73,245.94,575.36,213,607A811.74,811.74,0,0,1,0,754V923Z"/><path class="cls-3" d="M699,0c38.34,18.68,63.53,54.24,64,92,.08,6.22.53,40.15-22,62-16.46,16-30.08,11.51-43,29-13.34,18.05-11.67,40.17-11,49,.15,2.05,2.69,30.85,22,53,40,45.82,137.17,46.43,178,5,15.59-15.82,16.74-31.45,38-41,14.15-6.36,21.81-3.1,62-7,21.64-2.1,32.46-3.15,44-6,41.26-10.19,41.92-28.68,71-35,28.74-6.24,34.33,10.46,94,18,33,4.17,58.93,7.44,68-6,10.2-15.12-5.54-44.57-21-61-5.45-5.79-23.78-23.69-61-30-80.56-13.65-122.76,36-156,18-17.7-9.57-35.3-39.83-23-140"/></g><g id="Layer_5" data-name="Layer 5"><polyline class="cls-4" points="647 153 647 320.21 1041 320.21 1041 589"/></g><g id="Layer_6" data-name="Layer 6"><polyline class="cls-5" points="547 532 897.8 532 897.8 348.24 1283.62 348.24"/></g><g id="Layer_7" data-name="Layer 7"><polyline class="cls-6" points="465 251 465 334.53 1167 334.53 1167 251"/></g><g id="Labels"><rect class="cls-7" x="1019" y="589" width="45" height="45"/><text class="cls-8" transform="translate(1029.8 626.05)">3</text><rect class="cls-7" x="624" y="108" width="45" height="45"/><text class="cls-8" transform="translate(634.8 145.05)">3</text><rect class="cls-9" x="502" y="510" width="45" height="45"/><text class="cls-8" transform="translate(512.8 547.05)">1</text><rect class="cls-9" x="1284" y="326" width="45" height="45"/><text class="cls-8" transform="translate(1294.8 363.05)">1</text><rect class="cls-10" x="442" y="206" width="45" height="45"/><text class="cls-8" transform="translate(452.8 243.05)">8</text><rect class="cls-10" x="1145" y="206" width="45" height="45"/><text class="cls-8" transform="translate(1155.8 243.05)">8</text></g></g></svg>