<svg xmlns="http://www.w3.org/2000/svg" viewBox="0 0 1925 1085"><defs><style>.cls-1{fill:#009245;stroke:#009245;}.cls-1,.cls-10,.cls-11,.cls-4,.cls-5,.cls-6,.cls-7,.cls-9{stroke-miterlimit:10;}.cls-2{fill:#b3b3b3;}.cls-3{fill:aqua;}.cls-11,.cls-4,.cls-5,.cls-6{fill:none;}.cls-4,.cls-7{stroke:#f7931e;}.cls-10,.cls-4,.cls-5,.cls-6,.cls-7,.cls-9{stroke-width:10px;}.cls-5,.cls-9{stroke:#1b1464;}.cls-10,.cls-6{stroke:red;}.cls-7{fill:#f7931e;}.cls-8{font-size:55.93px;fill:#fff;font-family:MyriadPro-Regular, Myriad Pro;}.cls-9{fill:#1b1464;}.cls-10{fill:red;}.cls-11{stroke:#000;stroke-width:5px;}</style></defs><g id="Layer_2" data-name="Layer 2"><g id="BKG"><rect class="cls-1" x="2.44" y="2.68" width="1920" height="1080"/></g><g id="Layer_4" data-name="Layer 4"><path class="cls-2" d="M500.21,443.8c-52.51-40-75.46-128.52-47.77-160.3,15.27-17.54,32.11-1.89,86.66-15.21,42.51-10.38,44.65-22.9,110-49.14,53.36-21.43,80.57-32,106.67-22.24,31.48,11.72,28.68,37.5,58.89,65.53,47.43,44,89.9,13.46,214.44,40.95,75,16.55,132.23,41,132.23,41,66.48,28.34,84,48.59,114.44,39.78,40.09-11.6,39-55.24,92.22-78.4,10.38-4.51,53.29-23.18,76.67-4.68,43.22,34.22-6.34,174.94-33.33,251.57-30.17,85.63-45.25,128.45-80,163.82-94.53,96.18-229.38,78.92-241.12,77.22-40.68-5.88-70.14-19.66-87.77-28.08C976,753,893.26,713.47,853.55,629.85,816,550.8,855.7,514,822.44,482.42c-50.1-47.5-157,20.12-285.56-19.89A116.37,116.37,0,0,1,500.21,443.8Z"/></g><g id="Vesi"><path class="cls-3" d="M335.77,1082.68c-15.1-46.28-42.31-151.21-11.11-275,12.85-51,38.48-152.29,121.11-209.44,62.32-43.1,131.65-43.6,252.22-44.47,101.63-.73,148.58,15,211.11-21.06,43.59-25.11,84.42-69.4,76.67-86.59-6.14-13.61-43.32-11.44-67.78-4.68-34,9.42-41.79,22.79-66.66,29.26C814.72,480.23,786.5,460,750.21,443.8c-12.2-5.44-94.82-41.44-166.66-31.59C512.37,422,458.32,477.61,350.21,588.9c-23.29,24-36.91,39.6-36.91,39.6-26.58,30.28-37.6,47.41-74.2,84.43a901.27,901.27,0,0,1-236.66,172v197.75Z"/><path class="cls-3" d="M779.1,2.68c42.61,21.86,70.59,63.46,71.11,107.65.09,7.28.59,47-24.44,72.54-18.29,18.68-33.42,13.46-47.78,33.94-14.82,21.12-13,47-12.22,57.33.17,2.39,3,36.1,24.44,62C834.61,389.77,942.62,390.48,988,342c17.33-18.51,18.6-36.8,42.22-48,15.73-7.44,24.23-3.62,68.89-8.19,24.05-2.46,36.07-3.69,48.89-7,45.85-11.92,46.58-33.56,78.89-40.95,31.93-7.31,38.15,12.24,104.45,21.06,36.65,4.87,65.47,8.71,75.55-7,11.33-17.69-6.15-52.15-23.33-71.38-6.06-6.78-26.43-27.72-67.78-35.1-89.52-16-136.4,42.08-173.33,21.06-19.67-11.19-39.23-46.61-25.56-163.81"/></g><g id="Layer_5" data-name="Layer 5"><polyline class="cls-4" points="721.33 181.7 721.33 377.35 1159.1 377.35 1159.1 691.87"/></g><g id="Layer_6" data-name="Layer 6"><polyline class="cls-5" points="610.21 625.17 999.99 625.17 999.99 410.15 1428.68 410.15"/></g><g id="Layer_7" data-name="Layer 7"><polyline class="cls-6" points="519.1 296.37 519.1 394.11 1299.1 394.11 1299.1 296.37"/></g><g id="Labels"><rect class="cls-7" x="1134.66" y="691.86" width="50" height="52.65"/><text class="cls-8" transform="translate(1146.66 735.22) scale(0.95 1)">3</text><rect class="cls-7" x="695.77" y="129.05" width="50" height="52.65"/><text class="cls-8" transform="translate(707.77 172.4) scale(0.95 1)">3</text><rect class="cls-9" x="560.21" y="599.43" width="50" height="52.65"/><text class="cls-8" transform="translate(572.21 642.78) scale(0.95 1)">1</text><rect class="cls-9" x="1429.1" y="384.13" width="50" height="52.65"/><text class="cls-8" transform="translate(1441.1 427.48) scale(0.95 1)">1</text><rect class="cls-10" x="493.55" y="243.72" width="50" height="52.65"/><text class="cls-8" transform="translate(505.55 287.07) scale(0.95 1)">8</text><rect class="cls-10" x="1274.66" y="243.72" width="50" height="52.65"/><text class="cls-8" transform="translate(1286.66 287.07) scale(0.95 1)">8</text></g><g id="Layer_10" data-name="Layer 10"><rect class="cls-11" x="2.5" y="2.5" width="101.05" height="98.18"/><rect class="cls-11" x="103.55" y="2.5" width="101.05" height="98.18"/><rect class="cls-11" x="204.61" y="2.5" width="101.05" height="98.18"/><rect class="cls-11" x="305.66" y="2.5" width="101.05" height="98.18"/><rect class="cls-11" x="406.71" y="2.5" width="101.05" height="98.18"/><rect class="cls-11" x="507.76" y="2.5" width="101.05" height="98.18"/><rect class="cls-11" x="608.82" y="2.5" width="101.05" height="98.18"/><rect class="cls-11" x="709.87" y="2.5" width="101.05" height="98.18"/><rect class="cls-11" x="810.92" y="2.5" width="101.05" height="98.18"/><rect class="cls-11" x="911.97" y="2.5" width="101.05" height="98.18"/><rect class="cls-11" x="1013.03" y="2.5" width="101.05" height="98.18"/><rect class="cls-11" x="1114.08" y="2.5" width="101.05" height="98.18"/><rect class="cls-11" x="1215.13" y="2.5" width="101.05" height="98.18"/><rect class="cls-11" x="1316.18" y="2.5" width="101.05" height="98.18"/><rect class="cls-11" x="1417.24" y="2.5" width="101.05" height="98.18"/><rect class="cls-11" x="1518.29" y="2.5" width="101.05" height="98.18"/><rect class="cls-11" x="1619.34" y="2.5" width="101.05" height="98.18"/><rect class="cls-11" x="1720.39" y="2.5" width="101.05" height="98.18"/><rect class="cls-11" x="1821.45" y="2.5" width="101.05" height="98.18"/><rect class="cls-11" x="2.5" y="100.68" width="101.05" height="98.18"/><rect class="cls-11" x="103.55" y="100.68" width="101.05" height="98.18"/><rect class="cls-11" x="204.61" y="100.68" width="101.05" height="98.18"/><rect class="cls-11" x="305.66" y="100.68" width="101.05" height="98.18"/><rect class="cls-11" x="406.71" y="100.68" width="101.05" height="98.18"/><rect class="cls-11" x="507.76" y="100.68" width="101.05" height="98.18"/><rect class="cls-11" x="608.82" y="100.68" width="101.05" height="98.18"/><rect class="cls-11" x="709.87" y="100.68" width="101.05" height="98.18"/><rect class="cls-11" x="810.92" y="100.68" width="101.05" height="98.18"/><rect class="cls-11" x="911.97" y="100.68" width="101.05" height="98.18"/><rect class="cls-11" x="1013.03" y="100.68" width="101.05" height="98.18"/><rect class="cls-11" x="1114.08" y="100.68" width="101.05" height="98.18"/><rect class="cls-11" x="1215.13" y="100.68" width="101.05" height="98.18"/><rect class="cls-11" x="1316.18" y="100.68" width="101.05" height="98.18"/><rect class="cls-11" x="1417.24" y="100.68" width="101.05" height="98.18"/><rect class="cls-11" x="1518.29" y="100.68" width="101.05" height="98.18"/><rect class="cls-11" x="1619.34" y="100.68" width="101.05" height="98.18"/><rect class="cls-11" x="1720.39" y="100.68" width="101.05" height="98.18"/><rect class="cls-11" x="1821.45" y="100.68" width="101.05" height="98.18"/><rect class="cls-11" x="2.5" y="198.86" width="101.05" height="98.18"/><rect class="cls-11" x="103.55" y="198.86" width="101.05" height="98.18"/><rect class="cls-11" x="204.61" y="198.86" width="101.05" height="98.18"/><rect class="cls-11" x="305.66" y="198.86" width="101.05" height="98.18"/><rect class="cls-11" x="406.71" y="198.86" width="101.05" height="98.18"/><rect class="cls-11" x="507.76" y="198.86" width="101.05" height="98.18"/><rect class="cls-11" x="608.82" y="198.86" width="101.05" height="98.18"/><rect class="cls-11" x="709.87" y="198.86" width="101.05" height="98.18"/><rect class="cls-11" x="810.92" y="198.86" width="101.05" height="98.18"/><rect class="cls-11" x="911.97" y="198.86" width="101.05" height="98.18"/><rect class="cls-11" x="1013.03" y="198.86" width="101.05" height="98.18"/><rect class="cls-11" x="1114.08" y="198.86" width="101.05" height="98.18"/><rect class="cls-11" x="1215.13" y="198.86" width="101.05" height="98.18"/><rect class="cls-11" x="1316.18" y="198.86" width="101.05" height="98.18"/><rect class="cls-11" x="1417.24" y="198.86" width="101.05" height="98.18"/><rect class="cls-11" x="1518.29" y="198.86" width="101.05" height="98.18"/><rect class="cls-11" x="1619.34" y="198.86" width="101.05" height="98.18"/><rect class="cls-11" x="1720.39" y="198.86" width="101.05" height="98.18"/><rect class="cls-11" x="1821.45" y="198.86" width="101.05" height="98.18"/><rect class="cls-11" x="2.5" y="297.05" width="101.05" height="98.18"/><rect class="cls-11" x="103.55" y="297.05" width="101.05" height="98.18"/><rect class="cls-11" x="204.61" y="297.05" width="101.05" height="98.18"/><rect class="cls-11" x="305.66" y="297.05" width="101.05" height="98.18"/><rect class="cls-11" x="406.71" y="297.05" width="101.05" height="98.18"/><rect class="cls-11" x="507.76" y="297.05" width="101.05" height="98.18"/><rect class="cls-11" x="608.82" y="297.05" width="101.05" height="98.18"/><rect class="cls-11" x="709.87" y="297.05" width="101.05" height="98.18"/><rect class="cls-11" x="810.92" y="297.05" width="101.05" height="98.18"/><rect class="cls-11" x="911.97" y="297.05" width="101.05" height="98.18"/><rect class="cls-11" x="1013.03" y="297.05" width="101.05" height="98.18"/><rect class="cls-11" x="1114.08" y="297.05" width="101.05" height="98.18"/><rect class="cls-11" x="1215.13" y="297.05" width="101.05" height="98.18"/><rect class="cls-11" x="1316.18" y="297.05" width="101.05" height="98.18"/><rect class="cls-11" x="1417.24" y="297.05" width="101.05" height="98.18"/><rect class="cls-11" x="1518.29" y="297.05" width="101.05" height="98.18"/><rect class="cls-11" x="1619.34" y="297.05" width="101.05" height="98.18"/><rect class="cls-11" x="1720.39" y="297.05" width="101.05" height="98.18"/><rect class="cls-11" x="1821.45" y="297.05" width="101.05" height="98.18"/><rect class="cls-11" x="2.5" y="395.23" width="101.05" height="98.18"/><rect class="cls-11" x="103.55" y="395.23" width="101.05" height="98.18"/><rect class="cls-11" x="204.61" y="395.23" width="101.05" height="98.18"/><rect class="cls-11" x="305.66" y="395.23" width="101.05" height="98.18"/><rect class="cls-11" x="406.71" y="395.23" width="101.05" height="98.18"/><rect class="cls-11" x="507.76" y="395.23" width="101.05" height="98.18"/><rect class="cls-11" x="608.82" y="395.23" width="101.05" height="98.18"/><rect class="cls-11" x="709.87" y="395.23" width="101.05" height="98.18"/><rect class="cls-11" x="810.92" y="395.23" width="101.05" height="98.18"/><rect class="cls-11" x="911.97" y="395.23" width="101.05" height="98.18"/><rect class="cls-11" x="1013.03" y="395.23" width="101.05" height="98.18"/><rect class="cls-11" x="1114.08" y="395.23" width="101.05" height="98.18"/><rect class="cls-11" x="1215.13" y="395.23" width="101.05" height="98.18"/><rect class="cls-11" x="1316.18" y="395.23" width="101.05" height="98.18"/><rect class="cls-11" x="1417.24" y="395.23" width="101.05" height="98.18"/><rect class="cls-11" x="1518.29" y="395.23" width="101.05" height="98.18"/><rect class="cls-11" x="1619.34" y="395.23" width="101.05" height="98.18"/><rect class="cls-11" x="1720.39" y="395.23" width="101.05" height="98.18"/><rect class="cls-11" x="1821.45" y="395.23" width="101.05" height="98.18"/><rect class="cls-11" x="2.5" y="493.41" width="101.05" height="98.18"/><rect class="cls-11" x="103.55" y="493.41" width="101.05" height="98.18"/><rect class="cls-11" x="204.61" y="493.41" width="101.05" height="98.18"/><rect class="cls-11" x="305.66" y="493.41" width="101.05" height="98.18"/><rect class="cls-11" x="406.71" y="493.41" width="101.05" height="98.18"/><rect class="cls-11" x="507.76" y="493.41" width="101.05" height="98.18"/><rect class="cls-11" x="608.82" y="493.41" width="101.05" height="98.18"/><rect class="cls-11" x="709.87" y="493.41" width="101.05" height="98.18"/><rect class="cls-11" x="810.92" y="493.41" width="101.05" height="98.18"/><rect class="cls-11" x="911.97" y="493.41" width="101.05" height="98.18"/><rect class="cls-11" x="1013.03" y="493.41" width="101.05" height="98.18"/><rect class="cls-11" x="1114.08" y="493.41" width="101.05" height="98.18"/><rect class="cls-11" x="1215.13" y="493.41" width="101.05" height="98.18"/><rect class="cls-11" x="1316.18" y="493.41" width="101.05" height="98.18"/><rect class="cls-11" x="1417.24" y="493.41" width="101.05" height="98.18"/><rect class="cls-11" x="1518.29" y="493.41" width="101.05" height="98.18"/><rect class="cls-11" x="1619.34" y="493.41" width="101.05" height="98.18"/><rect class="cls-11" x="1720.39" y="493.41" width="101.05" height="98.18"/><rect class="cls-11" x="1821.45" y="493.41" width="101.05" height="98.18"/><rect class="cls-11" x="2.5" y="591.59" width="101.05" height="98.18"/><rect class="cls-11" x="103.55" y="591.59" width="101.05" height="98.18"/><rect class="cls-11" x="204.61" y="591.59" width="101.05" height="98.18"/><rect class="cls-11" x="305.66" y="591.59" width="101.05" height="98.18"/><rect class="cls-11" x="406.71" y="591.59" width="101.05" height="98.18"/><rect class="cls-11" x="507.76" y="591.59" width="101.05" height="98.18"/><rect class="cls-11" x="608.82" y="591.59" width="101.05" height="98.18"/><rect class="cls-11" x="709.87" y="591.59" width="101.05" height="98.18"/><rect class="cls-11" x="810.92" y="591.59" width="101.05" height="98.18"/><rect class="cls-11" x="911.97" y="591.59" width="101.05" height="98.18"/><rect class="cls-11" x="1013.03" y="591.59" width="101.05" height="98.18"/><rect class="cls-11" x="1114.08" y="591.59" width="101.05" height="98.18"/><rect class="cls-11" x="1215.13" y="591.59" width="101.05" height="98.18"/><rect class="cls-11" x="1316.18" y="591.59" width="101.05" height="98.18"/><rect class="cls-11" x="1417.24" y="591.59" width="101.05" height="98.18"/><rect class="cls-11" x="1518.29" y="591.59" width="101.05" height="98.18"/><rect class="cls-11" x="1619.34" y="591.59" width="101.05" height="98.18"/><rect class="cls-11" x="1720.39" y="591.59" width="101.05" height="98.18"/><rect class="cls-11" x="1821.45" y="591.59" width="101.05" height="98.18"/><rect class="cls-11" x="2.5" y="689.77" width="101.05" height="98.18"/><rect class="cls-11" x="103.55" y="689.77" width="101.05" height="98.18"/><rect class="cls-11" x="204.61" y="689.77" width="101.05" height="98.18"/><rect class="cls-11" x="305.66" y="689.77" width="101.05" height="98.18"/><rect class="cls-11" x="406.71" y="689.77" width="101.05" height="98.18"/><rect class="cls-11" x="507.76" y="689.77" width="101.05" height="98.18"/><rect class="cls-11" x="608.82" y="689.77" width="101.05" height="98.18"/><rect class="cls-11" x="709.87" y="689.77" width="101.05" height="98.18"/><rect class="cls-11" x="810.92" y="689.77" width="101.05" height="98.18"/><rect class="cls-11" x="911.97" y="689.77" width="101.05" height="98.18"/><rect class="cls-11" x="1013.03" y="689.77" width="101.05" height="98.18"/><rect class="cls-11" x="1114.08" y="689.77" width="101.05" height="98.18"/><rect class="cls-11" x="1215.13" y="689.77" width="101.05" height="98.18"/><rect class="cls-11" x="1316.18" y="689.77" width="101.05" height="98.18"/><rect class="cls-11" x="1417.24" y="689.77" width="101.05" height="98.18"/><rect class="cls-11" x="1518.29" y="689.77" width="101.05" height="98.18"/><rect class="cls-11" x="1619.34" y="689.77" width="101.05" height="98.18"/><rect class="cls-11" x="1720.39" y="689.77" width="101.05" height="98.18"/><rect class="cls-11" x="1821.45" y="689.77" width="101.05" height="98.18"/><rect class="cls-11" x="2.5" y="787.95" width="101.05" height="98.18"/><rect class="cls-11" x="103.55" y="787.95" width="101.05" height="98.18"/><rect class="cls-11" x="204.61" y="787.95" width="101.05" height="98.18"/><rect class="cls-11" x="305.66" y="787.95" width="101.05" height="98.18"/><rect class="cls-11" x="406.71" y="787.95" width="101.05" height="98.18"/><rect class="cls-11" x="507.76" y="787.95" width="101.05" height="98.18"/><rect class="cls-11" x="608.82" y="787.95" width="101.05" height="98.18"/><rect class="cls-11" x="709.87" y="787.95" width="101.05" height="98.18"/><rect class="cls-11" x="810.92" y="787.95" width="101.05" height="98.18"/><rect class="cls-11" x="911.97" y="787.95" width="101.05" height="98.18"/><rect class="cls-11" x="1013.03" y="787.95" width="101.05" height="98.18"/><rect class="cls-11" x="1114.08" y="787.95" width="101.05" height="98.18"/><rect class="cls-11" x="1215.13" y="787.95" width="101.05" height="98.18"/><rect class="cls-11" x="1316.18" y="787.95" width="101.05" height="98.18"/><rect class="cls-11" x="1417.24" y="787.95" width="101.05" height="98.18"/><rect class="cls-11" x="1518.29" y="787.95" width="101.05" height="98.18"/><rect class="cls-11" x="1619.34" y="787.95" width="101.05" height="98.18"/><rect class="cls-11" x="1720.39" y="787.95" width="101.05" height="98.18"/><rect class="cls-11" x="1821.45" y="787.95" width="101.05" height="98.18"/><rect class="cls-11" x="2.5" y="886.14" width="101.05" height="98.18"/><rect class="cls-11" x="103.55" y="886.14" width="101.05" height="98.18"/><rect class="cls-11" x="204.61" y="886.14" width="101.05" height="98.18"/><rect class="cls-11" x="305.66" y="886.14" width="101.05" height="98.18"/><rect class="cls-11" x="406.71" y="886.14" width="101.05" height="98.18"/><rect class="cls-11" x="507.76" y="886.14" width="101.05" height="98.18"/><rect class="cls-11" x="608.82" y="886.14" width="101.05" height="98.18"/><rect class="cls-11" x="709.87" y="886.14" width="101.05" height="98.18"/><rect class="cls-11" x="810.92" y="886.14" width="101.05" height="98.18"/><rect class="cls-11" x="911.97" y="886.14" width="101.05" height="98.18"/><rect class="cls-11" x="1013.03" y="886.14" width="101.05" height="98.18"/><rect class="cls-11" x="1114.08" y="886.14" width="101.05" height="98.18"/><rect class="cls-11" x="1215.13" y="886.14" width="101.05" height="98.18"/><rect class="cls-11" x="1316.18" y="886.14" width="101.05" height="98.18"/><rect class="cls-11" x="1417.24" y="886.14" width="101.05" height="98.18"/><rect class="cls-11" x="1518.29" y="886.14" width="101.05" height="98.18"/><rect class="cls-11" x="1619.34" y="886.14" width="101.05" height="98.18"/><rect class="cls-11" x="1720.39" y="886.14" width="101.05" height="98.18"/><rect class="cls-11" x="1821.45" y="886.14" width="101.05" height="98.18"/><rect class="cls-11" x="2.5" y="984.32" width="101.05" height="98.18"/><rect class="cls-11" x="103.55" y="984.32" width="101.05" height="98.18"/><rect class="cls-11" x="204.61" y="984.32" width="101.05" height="98.18"/><rect class="cls-11" x="305.66" y="984.32" width="101.05" height="98.18"/><rect class="cls-11" x="406.71" y="984.32" width="101.05" height="98.18"/><rect class="cls-11" x="507.76" y="984.32" width="101.05" height="98.18"/><rect class="cls-11" x="608.82" y="984.32" width="101.05" height="98.18"/><rect class="cls-11" x="709.87" y="984.32" width="101.05" height="98.18"/><rect class="cls-11" x="810.92" y="984.32" width="101.05" height="98.18"/><rect class="cls-11" x="911.97" y="984.32" width="101.05" height="98.18"/><rect class="cls-11" x="1013.03" y="984.32" width="101.05" height="98.18"/><rect class="cls-11" x="1114.08" y="984.32" width="101.05" height="98.18"/><rect class="cls-11" x="1215.13" y="984.32" width="101.05" height="98.18"/><rect class="cls-11" x="1316.18" y="984.32" width="101.05" height="98.18"/><rect class="cls-11" x="1417.24" y="984.32" width="101.05" height="98.18"/><rect class="cls-11" x="1518.29" y="984.32" width="101.05" height="98.18"/><rect class="cls-11" x="1619.34" y="984.32" width="101.05" height="98.18"/><rect class="cls-11" x="1720.39" y="984.32" width="101.05" height="98.18"/><rect class="cls-11" x="1821.45" y="984.32" width="101.05" height="98.18"/></g></g></svg>