<svg xmlns="http://www.w3.org/2000/svg" viewBox="0 0 187 153"><defs><style>.cls-1{opacity:0.5;}.cls-2{fill:#fff;}.cls-2,.cls-3,.cls-4,.cls-5{stroke:#000;}.cls-2,.cls-3,.cls-4,.cls-5,.cls-6{stroke-miterlimit:10;stroke-width:3px;}.cls-3{fill:#ffe07f;}.cls-4{fill:#ffbe7f;}.cls-5{fill:#e92200;}.cls-6{fill:none;stroke:#15fff4;}</style></defs><g id="Layer_35" data-name="Layer 35"><g id="foodCold_copy" data-name="foodCold copy"><rect class="cls-2" x="0.5" y="-0.5" width="186" height="153"/><ellipse class="cls-2" cx="91.54" cy="98.21" rx="84.54" ry="46.71"/><ellipse class="cls-3" cx="91.77" cy="97.97" rx="76.12" ry="40.81"/><ellipse class="cls-4" cx="91.77" cy="98.13" rx="69.99" ry="35.62"/><ellipse class="cls-5" cx="64.72" cy="81.93" rx="9.75" ry="5.74"/><ellipse class="cls-5" cx="109.86" cy="81.93" rx="9.75" ry="5.74"/><ellipse class="cls-5" cx="91.61" cy="104.89" rx="9.75" ry="5.74"/><ellipse class="cls-5" cx="42.39" cy="99.08" rx="9.75" ry="5.74"/><ellipse class="cls-5" cx="64.72" cy="117.79" rx="9.75" ry="5.74"/><ellipse class="cls-5" cx="119.61" cy="117.79" rx="9.75" ry="5.74"/><ellipse class="cls-5" cx="140.68" cy="93.26" rx="9.75" ry="5.74"/><line class="cls-6" x1="110.94" y1="11.17" x2="137.99" y2="26.89"/><line class="cls-6" x1="110.94" y1="24.14" x2="143.73" y2="10.06"/><line class="cls-6" x1="122.65" y1="26.89" x2="124.46" y2="7.19"/><path class="cls-6" d="M135.05,13.79v0Z"/><line class="cls-6" x1="142.79" y1="17.04" x2="135.05" y2="13.79"/><path class="cls-6" d="M132.41,24.14v0Z"/><line class="cls-6" x1="140.51" y1="22.18" x2="132.41" y2="24.14"/><polyline class="cls-6" points="116.13 26.89 122.66 24.14 127.33 27.42"/><line class="cls-6" x1="121.73" y1="31.85" x2="122.65" y2="24.14"/><path class="cls-6" d="M115.52,22.18,109,17.1Z"/><line class="cls-6" x1="112.9" y1="29.8" x2="115.52" y2="22.18"/><line class="cls-6" x1="106.67" y1="26.89" x2="114.21" y2="22.18"/><polyline class="cls-6" points="108.96 13.79 115.52 13.79 115.52 7.19"/><polyline class="cls-6" points="120.14 9.37 123.56 12.35 129.31 9.37"/><line class="cls-6" x1="67.42" y1="41.61" x2="94.47" y2="57.33"/><line class="cls-6" x1="67.42" y1="54.58" x2="100.21" y2="40.5"/><line class="cls-6" x1="79.14" y1="57.33" x2="80.95" y2="37.63"/><path class="cls-6" d="M91.53,44.23v0Z"/><line class="cls-6" x1="99.27" y1="47.48" x2="91.53" y2="44.23"/><path class="cls-6" d="M88.89,54.58v0Z"/><line class="cls-6" x1="96.99" y1="52.62" x2="88.89" y2="54.58"/><polyline class="cls-6" points="72.61 57.34 79.14 54.58 83.82 57.86"/><line class="cls-6" x1="78.21" y1="62.29" x2="79.14" y2="54.58"/><path class="cls-6" d="M72,52.62l-6.56-5.08Z"/><line class="cls-6" x1="69.39" y1="60.24" x2="72" y2="52.62"/><line class="cls-6" x1="63.15" y1="57.33" x2="70.69" y2="52.62"/><polyline class="cls-6" points="65.44 44.23 72 44.23 72 37.63"/><polyline class="cls-6" points="76.62 39.81 80.04 42.79 85.8 39.81"/><line class="cls-6" x1="129.27" y1="47.18" x2="156.32" y2="62.91"/><line class="cls-6" x1="129.27" y1="60.16" x2="162.06" y2="46.07"/><line class="cls-6" x1="140.99" y1="62.91" x2="142.79" y2="43.21"/><path class="cls-6" d="M153.38,49.8v0Z"/><line class="cls-6" x1="161.12" y1="53.06" x2="153.38" y2="49.8"/><path class="cls-6" d="M150.74,60.16v0Z"/><line class="cls-6" x1="158.84" y1="58.19" x2="150.74" y2="60.16"/><polyline class="cls-6" points="134.46 62.91 140.99 60.16 145.66 63.44"/><line class="cls-6" x1="140.06" y1="67.86" x2="140.99" y2="60.16"/><path class="cls-6" d="M133.85,58.19l-6.56-5.07Z"/><line class="cls-6" x1="131.24" y1="65.82" x2="133.85" y2="58.19"/><line class="cls-6" x1="125" y1="62.91" x2="132.54" y2="58.19"/><polyline class="cls-6" points="127.29 49.8 133.85 49.8 133.85 43.21"/><polyline class="cls-6" points="138.47 45.39 141.89 48.37 147.64 45.39"/></g></g></svg>