<svg xmlns="http://www.w3.org/2000/svg" viewBox="0 0 187 153"><defs><style>.cls-1{opacity:0.5;}.cls-2{fill:#fff;}.cls-2,.cls-3,.cls-4,.cls-5{stroke:#000;}.cls-2,.cls-3,.cls-4,.cls-5,.cls-6{stroke-miterlimit:10;stroke-width:3px;}.cls-3{fill:#ffe07f;}.cls-4{fill:#ffbe7f;}.cls-5{fill:#e92200;}.cls-6{fill:none;stroke:#d46300;}</style></defs><g id="Layer_35" data-name="Layer 35"><g id="foodHot_copy" data-name="foodHot copy"><rect class="cls-2" x="0.5" y="0.5" width="186" height="153"/></g><g id="foodWarm_copy" data-name="foodWarm copy"><ellipse class="cls-2" cx="92.54" cy="98.21" rx="84.54" ry="46.71"/><ellipse class="cls-3" cx="92.77" cy="97.97" rx="76.12" ry="40.81"/><ellipse class="cls-4" cx="92.77" cy="98.13" rx="69.99" ry="35.62"/><ellipse class="cls-5" cx="65.72" cy="81.93" rx="9.75" ry="5.74"/><ellipse class="cls-5" cx="110.86" cy="81.93" rx="9.75" ry="5.74"/><ellipse class="cls-5" cx="92.61" cy="104.89" rx="9.75" ry="5.74"/><ellipse class="cls-5" cx="43.39" cy="99.08" rx="9.75" ry="5.74"/><ellipse class="cls-5" cx="65.72" cy="117.79" rx="9.75" ry="5.74"/><ellipse class="cls-5" cx="120.61" cy="117.79" rx="9.75" ry="5.74"/><ellipse class="cls-5" cx="141.68" cy="93.26" rx="9.75" ry="5.74"/><path class="cls-6" d="M86.11,71.82c15.82-7.43,20.16-15,21.08-20.6,1.56-9.52-6.27-15.6-4.56-26.74,1.26-8.2,6.92-14.18,11.48-17.93"/><path class="cls-6" d="M112.42,80.09c15.82-7.44,20.15-15,21.08-20.61,1.56-9.51-6.27-15.6-4.57-26.73,1.26-8.21,6.93-14.18,11.49-17.93"/></g></g></svg>